<?xml version="1.0" encoding="utf-8"?>
<!-- Generator: Adobe Illustrator 24.0.3, SVG Export Plug-In . SVG Version: 6.00 Build 0)  -->
<svg version="1.1"
	 id="svg10" xmlns:cc="http://creativecommons.org/ns#" xmlns:dc="http://purl.org/dc/elements/1.1/" xmlns:inkscape="http://www.inkscape.org/namespaces/inkscape" xmlns:rdf="http://www.w3.org/1999/02/22-rdf-syntax-ns#" xmlns:sodipodi="http://sodipodi.sourceforge.net/DTD/sodipodi-0.dtd" xmlns:svg="http://www.w3.org/2000/svg"
	 xmlns="http://www.w3.org/2000/svg" xmlns:xlink="http://www.w3.org/1999/xlink" x="0px" y="0px" viewBox="0 0 340 261"
	 style="enable-background:new 0 0 340 261;" xml:space="preserve">
<style type="text/css">
	.st0{clip-path:url(#SVGID_2_);}
	.st1{fill:#FFFFFF;}
	.st2{fill:#4285F4;}
	.st3{font-family:'Helvetica';}
	.st4{font-size:29.3333px;}
	.st5{fill:#34A853;}
	.st6{fill:#EA4335;}
	.st7{fill:#313131;}
	.st8{font-size:77.3333px;}
	.st9{clip-path:url(#SVGID_4_);}
	.st10{clip-path:url(#SVGID_6_);}
	.st11{clip-path:url(#SVGID_8_);}
	.st12{clip-path:url(#SVGID_10_);}
	.st13{clip-path:url(#SVGID_12_);}
	.st14{clip-path:url(#SVGID_14_);}
	.st15{clip-path:url(#SVGID_16_);}
	.st16{clip-path:url(#SVGID_18_);}
	.st17{clip-path:url(#SVGID_20_);}
	.st18{clip-path:url(#SVGID_22_);}
	.st19{clip-path:url(#SVGID_24_);}
	.st20{clip-path:url(#SVGID_26_);}
	.st21{fill:none;stroke:#FFFFFF;stroke-width:8;stroke-miterlimit:5.3333;}
	.st22{clip-path:url(#SVGID_28_);}
	.st23{clip-path:url(#SVGID_30_);}
	.st24{clip-path:url(#SVGID_32_);}
	.st25{clip-path:url(#SVGID_34_);}
	.st26{fill:#34A853;}
	.st27{clip-path:url(#SVGID_36_);}
	.st28{fill:#EA4335;}
	.st29{clip-path:url(#SVGID_38_);}
	.st30{clip-path:url(#SVGID_40_);}
	.st31{clip-path:url(#SVGID_42_);}
	.st32{fill:none;stroke:#FBBC05;stroke-width:4;stroke-miterlimit:5.3333;}
</style>
<sodipodi:namedview  bordercolor="#666666" borderopacity="1" gridtolerance="10" guidetolerance="10" id="namedview12" inkscape:current-layer="g18" inkscape:cx="682.66663" inkscape:cy="512" inkscape:document-rotation="0" inkscape:pageopacity="0" inkscape:pageshadow="2" inkscape:window-height="1005" inkscape:window-maximized="0" inkscape:window-width="1680" inkscape:window-x="0" inkscape:window-y="23" inkscape:zoom="0.50170901" objecttolerance="10" pagecolor="#ffffff" showgrid="false">
	</sodipodi:namedview>
<g>
	<defs>
		<rect id="SVGID_1_" x="-89" y="-45" width="1365.3" height="1024"/>
	</defs>
	<clipPath id="SVGID_2_">
		<use xlink:href="#SVGID_1_"  style="overflow:visible;"/>
	</clipPath>
	<g id="g24" class="st0">
		<path id="path30" inkscape:connector-curvature="0" class="st1" d="M-89-45h1365.3V979H-89V-45z"/>
		<g id="g32" transform="translate(206,707)">
			<text transform="matrix(1 0 0 1 -20.3335 -670.6665)" class="st2 st3 st4">D</text>
			<text transform="matrix(1 0 0 1 0.8511 -670.6665)" class="st2 st3 st4">e</text>
			<text transform="matrix(1 0 0 1 17.166 -670.6665)" class="st2 st3 st4">e</text>
			<text transform="matrix(1 0 0 1 33.4814 -670.6665)" class="st2 st3 st4">p</text>
			<text transform="matrix(1 0 0 1 49.7969 -670.6665)" class="st2 st3 st4"> </text>
		</g>
		<g id="g38" transform="translate(206,681)">
			<text transform="matrix(1 0 0 1 -20.3335 -610)" class="st5 st3 st4">C</text>
			<text transform="matrix(1 0 0 1 0.8511 -610)" class="st5 st3 st4">o</text>
			<text transform="matrix(1 0 0 1 17.166 -610)" class="st5 st3 st4">g</text>
			<text transform="matrix(1 0 0 1 33.4814 -610)" class="st5 st3 st4">n</text>
			<text transform="matrix(1 0 0 1 49.7969 -610)" class="st5 st3 st4">i</text>
			<text transform="matrix(1 0 0 1 56.3145 -610)" class="st5 st3 st4">t</text>
			<text transform="matrix(1 0 0 1 64.4746 -610)" class="st5 st3 st4">i</text>
			<text transform="matrix(1 0 0 1 70.9932 -610)" class="st5 st3 st4">o</text>
			<text transform="matrix(1 0 0 1 87.3086 -610)" class="st5 st3 st4">n</text>
		</g>
		<g id="g44" transform="translate(206,681)">
		</g>
		<g id="g46" transform="translate(206,655)">
			<text transform="matrix(1 0 0 1 -20.3335 -549.333)" class="st3 st4">a</text>
			<text transform="matrix(1 0 0 1 -4.0181 -549.333)" class="st3 st4">n</text>
			<text transform="matrix(1 0 0 1 12.2969 -549.333)" class="st3 st4">d</text>
		</g>
		<g id="g52" transform="translate(206,629)">
			<text transform="matrix(1 0 0 1 -20.3335 -488.6665)" class="st6 st3 st4">L</text>
			<text transform="matrix(1 0 0 1 -4.0181 -488.6665)" class="st6 st3 st4">a</text>
			<text transform="matrix(1 0 0 1 12.2969 -488.6665)" class="st6 st3 st4">n</text>
			<text transform="matrix(1 0 0 1 28.6123 -488.6665)" class="st6 st3 st4">g</text>
			<text transform="matrix(1 0 0 1 44.9277 -488.6665)" class="st6 st3 st4">u</text>
			<text transform="matrix(1 0 0 1 61.2422 -488.6665)" class="st6 st3 st4">a</text>
			<text transform="matrix(1 0 0 1 77.5576 -488.6665)" class="st6 st3 st4">g</text>
			<text transform="matrix(1 0 0 1 93.873 -488.6665)" class="st6 st3 st4">e</text>
			<text transform="matrix(1 0 0 1 110.1885 -488.6665)" class="st6 st3 st4"> </text>
		</g>
		<g id="g58" transform="translate(206,603)">
			<text transform="matrix(1 0 0 1 -20.3335 -428)" class="st7 st3 st4">R</text>
			<text transform="matrix(1 0 0 1 0.8511 -428)" class="st7 st3 st4">e</text>
			<text transform="matrix(1 0 0 1 17.166 -428)" class="st7 st3 st4">s</text>
			<text transform="matrix(1 0 0 1 31.833 -428)" class="st7 st3 st4">e</text>
			<text transform="matrix(1 0 0 1 48.1484 -428)" class="st7 st3 st4">a</text>
			<text transform="matrix(1 0 0 1 64.4629 -428)" class="st7 st3 st4">r</text>
			<text transform="matrix(1 0 0 1 74.2314 -428)" class="st7 st3 st4">c</text>
			<text transform="matrix(1 0 0 1 88.8984 -428)" class="st7 st3 st4">h</text>
		</g>
		<g id="g64" transform="translate(66,543)">
			<text transform="matrix(1 0 0 1 -67 -288)" class="st2 st3 st8">D</text>
			<text transform="matrix(1 0 0 1 -11.1499 -288)" class="st2 st3 st8">e</text>
		</g>
		<g id="g70" transform="translate(66,543)">
			<text transform="matrix(1 0 0 1 31.8564 -288)" class="st5 st3 st8">C</text>
		</g>
		<g id="g76" transform="translate(66,543)">
			<text transform="matrix(1 0 0 1 87.7041 -288)" class="st6 st3 st8">L</text>
			<text transform="matrix(1 0 0 1 130.7168 -288)" class="st6 st3 st8">a</text>
		</g>
		<g id="g82" transform="translate(66,543)">
			<text transform="matrix(1 0 0 1 173.7227 -288)" class="st7 st3 st8">R</text>
			<text transform="matrix(1 0 0 1 229.5723 -288)" class="st7 st3 st8">e</text>
		</g>
	</g>
</g>
<g>
	<defs>
		<rect id="SVGID_3_" x="106.9" y="57.5" width="15.1" height="12.7"/>
	</defs>
	<clipPath id="SVGID_4_">
		<use xlink:href="#SVGID_3_"  style="overflow:visible;"/>
	</clipPath>
	<g id="g90" class="st9">
		<path id="path96" inkscape:connector-curvature="0" d="M108.2,68.9h12.5V58.8h-12.5V68.9z"/>
	</g>
</g>
<g>
	<defs>
		<rect id="SVGID_5_" x="36.3" y="12.7" width="77.5" height="77.5"/>
	</defs>
	<clipPath id="SVGID_6_">
		<use xlink:href="#SVGID_5_"  style="overflow:visible;"/>
	</clipPath>
	<g id="g100" class="st10">
		<path id="path106" inkscape:connector-curvature="0" d="M75,14c0.2,0,4.5,0,8.9,0.5c14.7,1.8,26.2,13.3,28,28
			c0.5,4.4,0.5,8.8,0.5,8.9c0,0.2,0,4.5-0.5,8.9c-1.8,14.7-13.3,26.2-28,28c-4.4,0.5-8.8,0.5-8.9,0.5c-0.2,0-4.5,0-8.9-0.5
			c-14.7-1.8-26.2-13.3-28-28c-0.5-4.4-0.5-8.8-0.5-8.9c0-0.2,0-4.5,0.5-8.9c1.8-14.7,13.3-26.2,28-28C70.5,14,74.8,14,75,14z"/>
	</g>
</g>
<g>
	<defs>
		<rect id="SVGID_7_" x="40.7" y="14.5" width="68.6" height="68.6"/>
	</defs>
	<clipPath id="SVGID_8_">
		<use xlink:href="#SVGID_7_"  style="overflow:visible;"/>
	</clipPath>
	<g id="g110" class="st11">
		<path id="path116" inkscape:connector-curvature="0" class="st1" d="M75,15.8c0.1,0,4,0,7.9,0.4c12.9,1.6,23.1,11.8,24.7,24.7
			c0.4,3.9,0.4,7.7,0.4,7.9c0,0.1,0,4-0.4,7.9C106,69.5,95.8,79.7,82.9,81.3c-3.9,0.4-7.7,0.4-7.9,0.4s-4,0-7.9-0.4
			C54.2,79.7,44,69.5,42.5,56.6c-0.4-3.9-0.4-7.7-0.4-7.9c0-0.1,0-4,0.4-7.9C44,27.9,54.2,17.8,67.1,16.2C71,15.8,74.9,15.8,75,15.8
			L75,15.8z"/>
	</g>
</g>
<g>
	<defs>
		<rect id="SVGID_9_" x="30.1" y="3.9" width="89.8" height="59.3"/>
	</defs>
	<clipPath id="SVGID_10_">
		<use xlink:href="#SVGID_9_"  style="overflow:visible;"/>
	</clipPath>
	<g id="g120" class="st12">
		<path id="path126" inkscape:connector-curvature="0" class="st1" d="M31.4,61.9h87.1V5.3H31.4V61.9z"/>
	</g>
</g>
<g>
	<defs>
		<rect id="SVGID_11_" x="28" y="57.5" width="15.1" height="12.7"/>
	</defs>
	<clipPath id="SVGID_12_">
		<use xlink:href="#SVGID_11_"  style="overflow:visible;"/>
	</clipPath>
	<g id="g130" class="st13">
		<path id="path136" inkscape:connector-curvature="0" d="M29.4,68.9h12.5V58.8H29.4V68.9z"/>
	</g>
</g>
<g>
	<defs>
		<rect id="SVGID_13_" x="21.9" y="146.2" width="106.3" height="20.3"/>
	</defs>
	<clipPath id="SVGID_14_">
		<use xlink:href="#SVGID_13_"  style="overflow:visible;"/>
	</clipPath>
	<g id="g140" class="st14">
		<path id="path146" inkscape:connector-curvature="0" d="M23.2,165.2h103.6v-17.6H23.2V165.2z"/>
	</g>
</g>
<g>
	<defs>
		<rect id="SVGID_15_" x="37.2" y="93.8" width="75.6" height="48.7"/>
	</defs>
	<clipPath id="SVGID_16_">
		<use xlink:href="#SVGID_15_"  style="overflow:visible;"/>
	</clipPath>
	<g id="g150" class="st15">
		<path id="path156" inkscape:connector-curvature="0" d="M38.6,141.2h72.9v-46H38.6V141.2z"/>
	</g>
</g>
<g>
	<defs>
		<rect id="SVGID_17_" x="44.4" y="126.4" width="61.2" height="9.7"/>
	</defs>
	<clipPath id="SVGID_18_">
		<use xlink:href="#SVGID_17_"  style="overflow:visible;"/>
	</clipPath>
	<g id="g160" class="st16">
		<path id="path166" inkscape:connector-curvature="0" class="st1" d="M45.7,134.8h58.6v-7.1H45.7V134.8z"/>
	</g>
</g>
<g>
	<defs>
		<rect id="SVGID_19_" x="44.4" y="99.1" width="61.2" height="24.8"/>
	</defs>
	<clipPath id="SVGID_20_">
		<use xlink:href="#SVGID_19_"  style="overflow:visible;"/>
	</clipPath>
	<g id="g170" class="st17">
		<path id="path176" inkscape:connector-curvature="0" class="st1" d="M45.7,122.6h58.6v-22.2H45.7V122.6z"/>
	</g>
</g>
<g>
	<defs>
		
			<rect id="SVGID_21_" x="64.5" y="11.5" transform="matrix(0.9301 -0.3673 0.3673 0.9301 -2.9546 27.8437)" width="14.4" height="20.3"/>
	</defs>
	<clipPath id="SVGID_22_">
		<use xlink:href="#SVGID_21_"  style="overflow:visible;"/>
	</clipPath>
	<g id="g180" class="st18">
		<g>
			<defs>
				<rect id="SVGID_23_" x="-89" y="-45" width="1365.3" height="1024"/>
			</defs>
			<clipPath id="SVGID_24_">
				<use xlink:href="#SVGID_23_"  style="overflow:visible;"/>
			</clipPath>
			<g id="g186" class="st19">
				<path id="path192" inkscape:connector-curvature="0" d="M73.9,11.3L63,15.6L69.5,32l10.9-4.3L73.9,11.3z"/>
			</g>
		</g>
	</g>
</g>
<g>
	<defs>
		<rect id="SVGID_25_" x="51.8" y="10.1" width="21.4" height="23.1"/>
	</defs>
	<clipPath id="SVGID_26_">
		<use xlink:href="#SVGID_25_"  style="overflow:visible;"/>
	</clipPath>
	<g id="g196" class="st20">
		<g id="g202" transform="matrix(1,0,0,-1,107.9749,722.9895)">
			<path id="path204" inkscape:connector-curvature="0" class="st21" d="M-53,708c2.9-1.5,5.6-3.7,7.9-6.4c2.5-2.8,4.6-6.2,5-10"/>
		</g>
	</g>
</g>
<g>
	<defs>
		<rect id="SVGID_27_" x="21.9" y="24.2" width="106.3" height="39.8"/>
	</defs>
	<clipPath id="SVGID_28_">
		<use xlink:href="#SVGID_27_"  style="overflow:visible;"/>
	</clipPath>
	<g id="g208" class="st22">
		<path id="path214" inkscape:connector-curvature="0" d="M23.2,62.6h103.6V25.5H23.2V62.6z"/>
	</g>
</g>
<g>
	<defs>
		<rect id="SVGID_29_" x="28" y="31.7" width="94.1" height="32.5"/>
	</defs>
	<clipPath id="SVGID_30_">
		<use xlink:href="#SVGID_29_"  style="overflow:visible;"/>
	</clipPath>
	<g id="g218" class="st23">
		<path id="path224" inkscape:connector-curvature="0" class="st1" d="M29.3,62.9h91.4V33.1H29.3V62.9z"/>
	</g>
</g>
<g>
	<defs>
		<rect id="SVGID_31_" x="78.7" y="33.7" width="29.4" height="15.6"/>
	</defs>
	<clipPath id="SVGID_32_">
		<use xlink:href="#SVGID_31_"  style="overflow:visible;"/>
	</clipPath>
	<g id="g228" class="st24">
		<path id="path234" inkscape:connector-curvature="0" class="st1" d="M80.1,48h26.7V35.1H80.1V48z"/>
	</g>
</g>
<g>
	<defs>
		<rect id="SVGID_33_" x="43.6" y="37" width="24.7" height="24.7"/>
	</defs>
	<clipPath id="SVGID_34_">
		<use xlink:href="#SVGID_33_"  style="overflow:visible;"/>
	</clipPath>
	<g id="g238" class="st25">
		<path id="path244" inkscape:connector-curvature="0" class="st26" d="M63.8,41.5c4.3,4.3,4.3,11.3,0,15.6
			c-4.3,4.3-11.3,4.3-15.6,0c-4.3-4.3-4.3-11.3,0-15.6C52.5,37.2,59.5,37.2,63.8,41.5z"/>
	</g>
</g>
<g>
	<defs>
		<rect id="SVGID_35_" x="81.5" y="52" width="24.9" height="7.3"/>
	</defs>
	<clipPath id="SVGID_36_">
		<use xlink:href="#SVGID_35_"  style="overflow:visible;"/>
	</clipPath>
	<g id="g248" class="st27">
		<path id="path254" inkscape:connector-curvature="0" class="st28" d="M82.8,57.9H105v-4.6H82.8V57.9z"/>
	</g>
</g>
<g>
	<defs>
		<rect id="SVGID_37_" x="80.5" y="45.3" transform="matrix(0.866 -0.5 0.5 0.866 -12.2971 52.7244)" width="23.4" height="8.1"/>
	</defs>
	<clipPath id="SVGID_38_">
		<use xlink:href="#SVGID_37_"  style="overflow:visible;"/>
	</clipPath>
	<g id="g258" class="st29">
		<g>
			<defs>
				<rect id="SVGID_39_" x="-89" y="-45" width="1365.3" height="1024"/>
			</defs>
			<clipPath id="SVGID_40_">
				<use xlink:href="#SVGID_39_"  style="overflow:visible;"/>
			</clipPath>
			<g id="g264" class="st30">
				<path id="path270" inkscape:connector-curvature="0" class="st28" d="M82.9,53.3l16.9-11.6l1.7,3.5L84.6,56.8L82.9,53.3z"/>
			</g>
		</g>
	</g>
</g>
<g>
	<defs>
		<rect id="SVGID_41_" x="-89" y="-45" width="1365.3" height="1024"/>
	</defs>
	<clipPath id="SVGID_42_">
		<use xlink:href="#SVGID_41_"  style="overflow:visible;"/>
	</clipPath>
	<g id="g274" class="st31">
		<g id="g280" transform="matrix(0,1,1,0,189.6922,599.7488)">
			<path id="path282" inkscape:connector-curvature="0" class="st32" d="M-420.4-25.8h-168.7"/>
		</g>
	</g>
</g>
</svg>
