<?xml version="1.0" encoding="utf-8"?>
<!-- Generator: Adobe Illustrator 24.0.3, SVG Export Plug-In . SVG Version: 6.00 Build 0)  -->
<svg version="1.1"
	 id="svg457" xmlns:cc="http://creativecommons.org/ns#" xmlns:dc="http://purl.org/dc/elements/1.1/" xmlns:inkscape="http://www.inkscape.org/namespaces/inkscape" xmlns:rdf="http://www.w3.org/1999/02/22-rdf-syntax-ns#" xmlns:sodipodi="http://sodipodi.sourceforge.net/DTD/sodipodi-0.dtd" xmlns:svg="http://www.w3.org/2000/svg"
	 xmlns="http://www.w3.org/2000/svg" xmlns:xlink="http://www.w3.org/1999/xlink" x="0px" y="0px" viewBox="0 0 410 212.9"
	 style="enable-background:new 0 0 410 212.9;" xml:space="preserve">
<style type="text/css">
	.st0{clip-path:url(#SVGID_2_);}
	.st1{fill:#FFFFFF;}
	.st2{enable-background:new    ;}
	.st3{fill:#004D80;}
	.st4{fill:#017B76;}
	.st5{fill:#B51700;}
	.st6{fill:#313131;}
	.st7{fill:none;stroke:#000000;stroke-width:4;stroke-miterlimit:5.3333;}
	.st8{clip-path:url(#SVGID_4_);}
	.st9{clip-path:url(#SVGID_6_);}
	.st10{clip-path:url(#SVGID_8_);}
	.st11{clip-path:url(#SVGID_10_);}
	.st12{clip-path:url(#SVGID_12_);}
	.st13{clip-path:url(#SVGID_14_);}
	.st14{clip-path:url(#SVGID_16_);}
	.st15{clip-path:url(#SVGID_18_);}
	.st16{clip-path:url(#SVGID_20_);}
	.st17{clip-path:url(#SVGID_22_);}
	.st18{clip-path:url(#SVGID_24_);}
	.st19{clip-path:url(#SVGID_26_);}
	.st20{fill:none;stroke:#FFFFFF;stroke-width:8;stroke-miterlimit:5.3333;}
	.st21{clip-path:url(#SVGID_28_);}
	.st22{clip-path:url(#SVGID_30_);}
	.st23{clip-path:url(#SVGID_32_);}
	.st24{clip-path:url(#SVGID_34_);}
	.st25{fill:#057C75;}
	.st26{clip-path:url(#SVGID_36_);}
	.st27{fill:#B51600;}
	.st28{clip-path:url(#SVGID_38_);}
	.st29{clip-path:url(#SVGID_40_);}
</style>
<sodipodi:namedview  bordercolor="#666666" borderopacity="1" gridtolerance="10" guidetolerance="10" id="namedview459" inkscape:current-layer="g465" inkscape:cx="682.66663" inkscape:cy="512" inkscape:document-rotation="0" inkscape:pageopacity="0" inkscape:pageshadow="2" inkscape:window-height="1005" inkscape:window-maximized="0" inkscape:window-width="1680" inkscape:window-x="0" inkscape:window-y="23" inkscape:zoom="0.265625" objecttolerance="10" pagecolor="#ffffff" showgrid="false">
	</sodipodi:namedview>
<g id="g467">
</g>
<g id="g469">
	<g>
		<defs>
			<rect id="SVGID_1_" x="-698" y="-60.1" width="1365.3" height="1024"/>
		</defs>
		<clipPath id="SVGID_2_">
			<use xlink:href="#SVGID_1_"  style="overflow:visible;"/>
		</clipPath>
		<g id="g471" class="st0">
			<path id="path477" inkscape:connector-curvature="0" class="st1" d="M-698-60.1H667.3v1024H-698V-60.1z"/>
			<g id="g479" transform="translate(709,695)">
				<g class="st2">
					<path class="st3" d="M-458.8-683.6h10.3c3.5,0,6.2,1.3,8.2,3.8c1.7,2.3,2.6,5.2,2.6,8.7c0,2.7-0.5,5.2-1.5,7.4
						c-1.8,3.9-4.9,5.9-9.2,5.9h-10.3V-683.6z M-449.1-660.8c1.2,0,2.1-0.1,2.9-0.4c1.3-0.5,2.4-1.3,3.3-2.6c0.7-1,1.2-2.4,1.5-4
						c0.2-1,0.3-1.9,0.3-2.7c0-3.2-0.6-5.7-1.9-7.5s-3.2-2.7-6-2.7h-6.1v19.8H-449.1z"/>
				</g>
				<g class="st2">
					<path class="st3" d="M-421.7-676.1c1.2,0.6,2.2,1.4,2.8,2.4c0.6,0.9,1,2.1,1.3,3.3c0.2,0.9,0.3,2.2,0.3,4.1H-431
						c0.1,1.9,0.5,3.5,1.3,4.6c0.8,1.2,2.1,1.7,3.9,1.7c1.6,0,2.9-0.5,3.9-1.6c0.5-0.6,0.9-1.4,1.2-2.2h3.1
						c-0.1,0.7-0.4,1.5-0.8,2.3s-1,1.5-1.5,2.1c-1,0.9-2.1,1.6-3.5,1.9c-0.8,0.2-1.6,0.3-2.6,0.3c-2.3,0-4.3-0.9-5.9-2.6
						c-1.6-1.7-2.4-4.1-2.4-7.2c0-3,0.8-5.5,2.4-7.4c1.6-1.9,3.8-2.8,6.4-2.8C-424.3-677-423-676.7-421.7-676.1z M-420.6-668.7
						c-0.1-1.4-0.4-2.5-0.9-3.3c-0.9-1.5-2.3-2.3-4.3-2.3c-1.4,0-2.6,0.5-3.6,1.6c-1,1-1.5,2.4-1.6,4H-420.6z"/>
				</g>
				<g class="st2">
					<path class="st3" d="M-401.7-676.1c1.2,0.6,2.2,1.4,2.8,2.4c0.6,0.9,1,2.1,1.3,3.3c0.2,0.9,0.3,2.2,0.3,4.1H-411
						c0.1,1.9,0.5,3.5,1.3,4.6c0.8,1.2,2.1,1.7,3.9,1.7c1.6,0,2.9-0.5,3.9-1.6c0.5-0.6,0.9-1.4,1.2-2.2h3.1
						c-0.1,0.7-0.4,1.5-0.8,2.3s-1,1.5-1.5,2.1c-1,0.9-2.1,1.6-3.5,1.9c-0.8,0.2-1.6,0.3-2.6,0.3c-2.3,0-4.3-0.9-5.9-2.6
						c-1.6-1.7-2.4-4.1-2.4-7.2c0-3,0.8-5.5,2.4-7.4c1.6-1.9,3.8-2.8,6.4-2.8C-404.2-677-402.9-676.7-401.7-676.1z M-400.6-668.7
						c-0.1-1.4-0.4-2.5-0.9-3.3c-0.9-1.5-2.3-2.3-4.3-2.3c-1.4,0-2.6,0.5-3.6,1.6c-1,1-1.5,2.4-1.6,4H-400.6z"/>
				</g>
				<g class="st2">
					<path class="st3" d="M-393.6-676.5h3.1v2.5c0.6-0.9,1.3-1.5,2.1-2c1.1-0.7,2.3-1.1,3.8-1.1c2.1,0,4,0.8,5.4,2.5s2.2,4,2.2,7
						c0,4.1-1.1,7-3.2,8.8c-1.4,1.1-3,1.7-4.8,1.7c-1.4,0-2.6-0.3-3.6-0.9c-0.6-0.4-1.2-1-1.9-1.8v9.6h-3.2V-676.5z M-381.7-661.8
						c1-1.2,1.5-3.1,1.5-5.5c0-1.5-0.2-2.8-0.7-3.9c-0.8-2.1-2.3-3.1-4.5-3.1c-2.2,0-3.7,1.1-4.5,3.3c-0.4,1.2-0.7,2.7-0.7,4.5
						c0,1.5,0.2,2.7,0.7,3.7c0.8,1.9,2.3,2.9,4.5,2.9C-383.9-659.9-382.6-660.5-381.7-661.8z"/>
				</g>
			</g>
			<g id="g485" transform="translate(709,663)">
				<g class="st2">
					<path class="st4" d="M-440.7-607.1c1.8,1.7,2.8,3.7,3,5.9h-3.4c-0.4-1.7-1.1-3-2.3-4s-2.7-1.5-4.8-1.5c-2.5,0-4.5,0.9-6.1,2.7
						c-1.5,1.8-2.3,4.5-2.3,8.2c0,3,0.7,5.5,2.1,7.4c1.4,1.9,3.5,2.8,6.2,2.8c2.5,0,4.5-1,5.8-3c0.7-1,1.2-2.4,1.6-4.1h3.4
						c-0.3,2.7-1.3,5-3,6.8c-2,2.2-4.8,3.3-8.2,3.3c-3,0-5.5-0.9-7.5-2.7c-2.7-2.4-4-6.1-4-11.1c0-3.8,1-6.9,3-9.4
						c2.2-2.6,5.1-4,8.9-4C-445-609.7-442.4-608.8-440.7-607.1z"/>
				</g>
				<g class="st2">
					<path class="st4" d="M-419.7-600.1c1.7,1.6,2.5,4,2.5,7.1c0,3-0.7,5.5-2.2,7.5c-1.5,2-3.7,3-6.8,3c-2.6,0-4.6-0.9-6.1-2.6
						c-1.5-1.8-2.3-4.1-2.3-7.1c0-3.2,0.8-5.7,2.4-7.6c1.6-1.9,3.7-2.8,6.4-2.8C-423.4-602.5-421.4-601.7-419.7-600.1z
						 M-421.7-587.6c0.8-1.6,1.2-3.4,1.2-5.3c0-1.8-0.3-3.2-0.8-4.3c-0.9-1.7-2.4-2.6-4.6-2.6c-1.9,0-3.3,0.7-4.2,2.2
						s-1.3,3.3-1.3,5.3c0,2,0.4,3.7,1.3,5s2.2,2,4.1,2C-423.9-585.2-422.4-586-421.7-587.6z"/>
				</g>
				<g class="st2">
					<path class="st4" d="M-402.9-601.2c0.6,0.4,1.2,1,1.8,1.8v-2.4h2.9v17.1c0,2.4-0.4,4.3-1.1,5.7c-1.3,2.6-3.8,3.8-7.4,3.8
						c-2,0-3.7-0.5-5.1-1.4c-1.4-0.9-2.1-2.3-2.3-4.3h3.2c0.2,0.8,0.5,1.5,0.9,2c0.7,0.7,1.8,1.1,3.4,1.1c2.4,0,4-0.9,4.7-2.6
						c0.4-1,0.6-2.8,0.6-5.4c-0.6,1-1.4,1.7-2.3,2.1c-0.9,0.5-2.1,0.7-3.5,0.7c-2,0-3.8-0.7-5.3-2.2s-2.3-3.8-2.3-7.2
						c0-3.2,0.8-5.6,2.3-7.4s3.4-2.7,5.6-2.7C-405.2-602.3-404-601.9-402.9-601.2z M-402.5-597.8c-1-1.1-2.2-1.7-3.7-1.7
						c-2.2,0-3.7,1-4.5,3.1c-0.4,1.1-0.6,2.6-0.6,4.4c0,2.1,0.4,3.7,1.3,4.8c0.9,1.1,2,1.7,3.5,1.7c2.3,0,3.9-1,4.8-3.1
						c0.5-1.2,0.8-2.5,0.8-4.1C-401-595-401.5-596.7-402.5-597.8z"/>
				</g>
				<g class="st2">
					<path class="st4" d="M-393.3-602h3v2.7c0.9-1.1,1.8-1.9,2.8-2.4s2.1-0.7,3.3-0.7c2.7,0,4.5,0.9,5.4,2.8c0.5,1,0.8,2.5,0.8,4.4
						v12.1h-3.2V-595c0-1.1-0.2-2.1-0.5-2.8c-0.6-1.2-1.6-1.8-3.1-1.8c-0.8,0-1.4,0.1-1.8,0.2c-0.9,0.3-1.6,0.8-2.3,1.5
						c-0.5,0.6-0.9,1.3-1,1.9s-0.2,1.6-0.2,2.8v9.9h-3.2V-602z"/>
				</g>
				<g class="st2">
					<path class="st4" d="M-373.3-609h3.2v3.6h-3.2V-609z M-373.3-601.9h3.2v18.7h-3.2V-601.9z"/>
				</g>
				<g class="st2">
					<path class="st4" d="M-364.6-607.2h3.2v5.3h3v2.6h-3v12.3c0,0.7,0.2,1.1,0.7,1.3c0.2,0.1,0.7,0.2,1.2,0.2c0.2,0,0.3,0,0.5,0
						c0.2,0,0.4,0,0.6-0.1v2.5c-0.4,0.1-0.7,0.2-1.1,0.2s-0.8,0.1-1.3,0.1c-1.5,0-2.5-0.4-3-1.1s-0.8-1.7-0.8-2.9v-12.5h-2.5v-2.6
						h2.5V-607.2z"/>
				</g>
				<g class="st2">
					<path class="st4" d="M-355.3-609h3.2v3.6h-3.2V-609z M-355.3-601.9h3.2v18.7h-3.2V-601.9z"/>
				</g>
				<g class="st2">
					<path class="st4" d="M-333.6-600.1c1.7,1.6,2.5,4,2.5,7.1c0,3-0.7,5.5-2.2,7.5c-1.5,2-3.7,3-6.8,3c-2.6,0-4.6-0.9-6.1-2.6
						c-1.5-1.8-2.3-4.1-2.3-7.1c0-3.2,0.8-5.7,2.4-7.6c1.6-1.9,3.7-2.8,6.4-2.8C-337.3-602.5-335.3-601.7-333.6-600.1z
						 M-335.6-587.6c0.8-1.6,1.2-3.4,1.2-5.3c0-1.8-0.3-3.2-0.8-4.3c-0.9-1.7-2.4-2.6-4.6-2.6c-1.9,0-3.3,0.7-4.2,2.2
						s-1.3,3.3-1.3,5.3c0,2,0.4,3.7,1.3,5s2.2,2,4.1,2C-337.8-585.2-336.4-586-335.6-587.6z"/>
				</g>
				<g class="st2">
					<path class="st4" d="M-327.2-602h3v2.7c0.9-1.1,1.8-1.9,2.8-2.4s2.1-0.7,3.3-0.7c2.7,0,4.5,0.9,5.4,2.8c0.5,1,0.8,2.5,0.8,4.4
						v12.1h-3.2V-595c0-1.1-0.2-2.1-0.5-2.8c-0.6-1.2-1.6-1.8-3.1-1.8c-0.8,0-1.4,0.1-1.8,0.2c-0.9,0.3-1.6,0.8-2.3,1.5
						c-0.5,0.6-0.9,1.3-1,1.9s-0.2,1.6-0.2,2.8v9.9h-3.2V-602z"/>
				</g>
			</g>
			<g id="g491" transform="translate(709,631)">
				<g class="st2">
					<path d="M-449.3-519.9c0.7-0.1,1.2-0.4,1.5-0.9c0.1-0.3,0.2-0.7,0.2-1.2c0-1.1-0.4-1.9-1.1-2.4c-0.8-0.5-1.9-0.7-3.3-0.7
						c-1.6,0-2.8,0.4-3.5,1.3c-0.4,0.5-0.6,1.2-0.8,2.2h-3c0.1-2.3,0.8-3.9,2.3-4.9s3.1-1.4,5-1.4c2.2,0,4,0.4,5.4,1.3
						c1.4,0.8,2.1,2.2,2.1,3.9v10.8c0,0.3,0.1,0.6,0.2,0.8s0.4,0.3,0.9,0.3c0.1,0,0.3,0,0.5,0s0.4,0,0.6-0.1v2.3
						c-0.5,0.1-0.9,0.2-1.1,0.3s-0.6,0.1-1.1,0.1c-1.1,0-1.9-0.4-2.4-1.2c-0.3-0.4-0.4-1-0.5-1.7c-0.6,0.8-1.6,1.6-2.8,2.2
						c-1.2,0.6-2.5,0.9-4,0.9c-1.7,0-3.2-0.5-4.3-1.6s-1.7-2.4-1.7-4c0-1.7,0.5-3.1,1.6-4.1c1.1-1,2.5-1.6,4.3-1.8L-449.3-519.9z
						 M-455.9-511.3c0.7,0.5,1.5,0.8,2.4,0.8c1.1,0,2.2-0.3,3.2-0.8c1.8-0.9,2.6-2.3,2.6-4.2v-2.5c-0.4,0.2-0.9,0.5-1.5,0.6
						s-1.2,0.3-1.8,0.4l-1.9,0.2c-1.1,0.2-2,0.4-2.6,0.7c-1,0.5-1.5,1.4-1.5,2.6C-456.9-512.6-456.6-511.8-455.9-511.3z"/>
				</g>
				<g class="st2">
					<path d="M-439.3-527.3h3v2.7c0.9-1.1,1.8-1.9,2.8-2.4s2.1-0.7,3.3-0.7c2.7,0,4.5,0.9,5.4,2.8c0.5,1,0.8,2.5,0.8,4.4v12.1h-3.2
						v-11.9c0-1.1-0.2-2.1-0.5-2.8c-0.6-1.2-1.6-1.8-3.1-1.8c-0.8,0-1.4,0.1-1.8,0.2c-0.9,0.3-1.6,0.8-2.3,1.5
						c-0.5,0.6-0.9,1.3-1,1.9s-0.2,1.6-0.2,2.8v9.9h-3.2V-527.3z"/>
				</g>
				<g class="st2">
					<path d="M-409-526.7c0.6,0.4,1.2,1,1.9,1.8v-9.5h3v25.9h-2.8v-2.6c-0.7,1.2-1.6,2-2.6,2.5s-2.2,0.8-3.4,0.8
						c-2.1,0-3.9-0.9-5.4-2.6c-1.5-1.8-2.3-4.1-2.3-7c0-2.7,0.7-5.1,2.1-7.1c1.4-2,3.4-3,6-3C-411.1-527.6-409.9-527.3-409-526.7z
						 M-416-512.6c0.9,1.4,2.2,2,4.1,2c1.5,0,2.7-0.6,3.6-1.9c0.9-1.3,1.4-3.1,1.4-5.4c0-2.4-0.5-4.1-1.5-5.3
						c-1-1.1-2.2-1.7-3.6-1.7c-1.6,0-2.9,0.6-3.9,1.8s-1.5,3-1.5,5.4C-417.3-515.6-416.9-514-416-512.6z"/>
				</g>
			</g>
			<g id="g497" transform="translate(709,599)">
				<g class="st2">
					<path class="st5" d="M-458.9-459.6h3.5v22.7h13v3.1h-16.5V-459.6z"/>
				</g>
				<g class="st2">
					<path class="st5" d="M-429.2-445.2c0.7-0.1,1.2-0.4,1.5-0.9c0.1-0.3,0.2-0.7,0.2-1.2c0-1.1-0.4-1.9-1.1-2.4
						c-0.8-0.5-1.9-0.7-3.3-0.7c-1.6,0-2.8,0.4-3.5,1.3c-0.4,0.5-0.6,1.2-0.8,2.2h-3c0.1-2.3,0.8-3.9,2.3-4.9s3.1-1.4,5-1.4
						c2.2,0,4,0.4,5.4,1.3c1.4,0.8,2.1,2.2,2.1,3.9v10.8c0,0.3,0.1,0.6,0.2,0.8s0.4,0.3,0.9,0.3c0.1,0,0.3,0,0.5,0s0.4,0,0.6-0.1
						v2.3c-0.5,0.1-0.9,0.2-1.1,0.3s-0.6,0.1-1.1,0.1c-1.1,0-1.9-0.4-2.4-1.2c-0.3-0.4-0.4-1-0.5-1.7c-0.6,0.8-1.6,1.6-2.8,2.2
						c-1.2,0.6-2.5,0.9-4,0.9c-1.7,0-3.2-0.5-4.3-1.6s-1.7-2.4-1.7-4c0-1.7,0.5-3.1,1.6-4.1c1.1-1,2.5-1.6,4.3-1.8L-429.2-445.2z
						 M-435.9-436.6c0.7,0.5,1.5,0.8,2.4,0.8c1.1,0,2.2-0.3,3.2-0.8c1.8-0.9,2.6-2.3,2.6-4.2v-2.5c-0.4,0.2-0.9,0.5-1.5,0.6
						s-1.2,0.3-1.8,0.4l-1.9,0.2c-1.1,0.2-2,0.4-2.6,0.7c-1,0.5-1.5,1.4-1.5,2.6C-436.9-437.9-436.6-437.2-435.9-436.6z"/>
				</g>
				<g class="st2">
					<path class="st5" d="M-419.3-452.6h3v2.7c0.9-1.1,1.8-1.9,2.8-2.4s2.1-0.7,3.3-0.7c2.7,0,4.5,0.9,5.4,2.8
						c0.5,1,0.8,2.5,0.8,4.4v12.1h-3.2v-11.9c0-1.1-0.2-2.1-0.5-2.8c-0.6-1.2-1.6-1.8-3.1-1.8c-0.8,0-1.4,0.1-1.8,0.2
						c-0.9,0.3-1.6,0.8-2.3,1.5c-0.5,0.6-0.9,1.3-1,1.9s-0.2,1.6-0.2,2.8v9.9h-3.2V-452.6z"/>
				</g>
				<g class="st2">
					<path class="st5" d="M-388.8-451.9c0.6,0.4,1.2,1,1.8,1.8v-2.4h2.9v17.1c0,2.4-0.4,4.3-1.1,5.7c-1.3,2.6-3.8,3.8-7.4,3.8
						c-2,0-3.7-0.5-5.1-1.4c-1.4-0.9-2.1-2.3-2.3-4.3h3.2c0.2,0.8,0.5,1.5,0.9,2c0.7,0.7,1.8,1.1,3.4,1.1c2.4,0,4-0.9,4.7-2.6
						c0.4-1,0.6-2.8,0.6-5.4c-0.6,1-1.4,1.7-2.3,2.1c-0.9,0.5-2.1,0.7-3.5,0.7c-2,0-3.8-0.7-5.3-2.2s-2.3-3.8-2.3-7.2
						c0-3.2,0.8-5.6,2.3-7.4s3.4-2.7,5.6-2.7C-391.2-453-389.9-452.6-388.8-451.9z M-388.4-448.5c-1-1.1-2.2-1.7-3.7-1.7
						c-2.2,0-3.7,1-4.5,3.1c-0.4,1.1-0.6,2.6-0.6,4.4c0,2.1,0.4,3.7,1.3,4.8c0.9,1.1,2,1.7,3.5,1.7c2.3,0,3.9-1,4.8-3.1
						c0.5-1.2,0.8-2.5,0.8-4.1C-387-445.6-387.5-447.4-388.4-448.5z"/>
				</g>
				<g class="st2">
					<path class="st5" d="M-376.1-452.6v12.5c0,1,0.1,1.7,0.4,2.4c0.5,1.1,1.6,1.7,3.1,1.7c2.1,0,3.6-1,4.4-3
						c0.4-1.1,0.6-2.5,0.6-4.3v-9.2h3.2v18.8h-3l0-2.8c-0.4,0.7-0.9,1.3-1.5,1.8c-1.2,1-2.6,1.5-4.3,1.5c-2.6,0-4.4-0.9-5.4-2.7
						c-0.5-1-0.8-2.2-0.8-3.8v-12.8H-376.1z"/>
				</g>
				<g class="st2">
					<path class="st5" d="M-349.1-445.2c0.7-0.1,1.2-0.4,1.5-0.9c0.1-0.3,0.2-0.7,0.2-1.2c0-1.1-0.4-1.9-1.1-2.4
						c-0.8-0.5-1.9-0.7-3.3-0.7c-1.6,0-2.8,0.4-3.5,1.3c-0.4,0.5-0.6,1.2-0.8,2.2h-3c0.1-2.3,0.8-3.9,2.3-4.9s3.1-1.4,5-1.4
						c2.2,0,4,0.4,5.4,1.3c1.4,0.8,2.1,2.2,2.1,3.9v10.8c0,0.3,0.1,0.6,0.2,0.8s0.4,0.3,0.9,0.3c0.1,0,0.3,0,0.5,0s0.4,0,0.6-0.1
						v2.3c-0.5,0.1-0.9,0.2-1.1,0.3s-0.6,0.1-1.1,0.1c-1.1,0-1.9-0.4-2.4-1.2c-0.3-0.4-0.4-1-0.5-1.7c-0.6,0.8-1.6,1.6-2.8,2.2
						c-1.2,0.6-2.5,0.9-4,0.9c-1.7,0-3.2-0.5-4.3-1.6s-1.7-2.4-1.7-4c0-1.7,0.5-3.1,1.6-4.1c1.1-1,2.5-1.6,4.3-1.8L-349.1-445.2z
						 M-355.8-436.6c0.7,0.5,1.5,0.8,2.4,0.8c1.1,0,2.2-0.3,3.2-0.8c1.8-0.9,2.6-2.3,2.6-4.2v-2.5c-0.4,0.2-0.9,0.5-1.5,0.6
						s-1.2,0.3-1.8,0.4l-1.9,0.2c-1.1,0.2-2,0.4-2.6,0.7c-1,0.5-1.5,1.4-1.5,2.6C-356.8-437.9-356.5-437.2-355.8-436.6z"/>
				</g>
				<g class="st2">
					<path class="st5" d="M-328.7-451.9c0.6,0.4,1.2,1,1.8,1.8v-2.4h2.9v17.1c0,2.4-0.4,4.3-1.1,5.7c-1.3,2.6-3.8,3.8-7.4,3.8
						c-2,0-3.7-0.5-5.1-1.4c-1.4-0.9-2.1-2.3-2.3-4.3h3.2c0.2,0.8,0.5,1.5,0.9,2c0.7,0.7,1.8,1.1,3.4,1.1c2.4,0,4-0.9,4.7-2.6
						c0.4-1,0.6-2.8,0.6-5.4c-0.6,1-1.4,1.7-2.3,2.1c-0.9,0.5-2.1,0.7-3.5,0.7c-2,0-3.8-0.7-5.3-2.2s-2.3-3.8-2.3-7.2
						c0-3.2,0.8-5.6,2.3-7.4s3.4-2.7,5.6-2.7C-331.1-453-329.8-452.6-328.7-451.9z M-328.4-448.5c-1-1.1-2.2-1.7-3.7-1.7
						c-2.2,0-3.7,1-4.5,3.1c-0.4,1.1-0.6,2.6-0.6,4.4c0,2.1,0.4,3.7,1.3,4.8c0.9,1.1,2,1.7,3.5,1.7c2.3,0,3.9-1,4.8-3.1
						c0.5-1.2,0.8-2.5,0.8-4.1C-326.9-445.6-327.4-447.4-328.4-448.5z"/>
				</g>
				<g class="st2">
					<path class="st5" d="M-307.6-452.1c1.2,0.6,2.2,1.4,2.8,2.4c0.6,0.9,1,2.1,1.3,3.3c0.2,0.9,0.3,2.2,0.3,4.1h-13.7
						c0.1,1.9,0.5,3.5,1.3,4.6c0.8,1.2,2.1,1.7,3.9,1.7c1.6,0,2.9-0.5,3.9-1.6c0.5-0.6,0.9-1.4,1.2-2.2h3.1
						c-0.1,0.7-0.4,1.5-0.8,2.3s-1,1.5-1.5,2.1c-1,0.9-2.1,1.6-3.5,1.9c-0.8,0.2-1.6,0.3-2.6,0.3c-2.3,0-4.3-0.9-5.9-2.6
						c-1.6-1.7-2.4-4.1-2.4-7.2c0-3,0.8-5.5,2.4-7.4c1.6-1.9,3.8-2.8,6.4-2.8C-310.1-453-308.8-452.7-307.6-452.1z M-306.4-444.7
						c-0.1-1.4-0.4-2.5-0.9-3.3c-0.9-1.5-2.3-2.3-4.3-2.3c-1.4,0-2.6,0.5-3.6,1.6c-1,1-1.5,2.4-1.6,4H-306.4z"/>
				</g>
			</g>
			<g id="g503" transform="translate(709,567)">
				<g class="st2">
					<path class="st6" d="M-458.5-385h11.7c1.9,0,3.5,0.3,4.8,0.9c2.4,1.1,3.6,3.1,3.6,6.1c0,1.5-0.3,2.8-1,3.8s-1.5,1.8-2.7,2.4
						c1,0.4,1.8,0.9,2.3,1.6s0.8,1.8,0.9,3.3l0.1,3.5c0,1,0.1,1.7,0.2,2.2c0.2,0.8,0.6,1.3,1.1,1.6v0.6h-4.3
						c-0.1-0.2-0.2-0.5-0.3-0.9s-0.1-1-0.2-2l-0.2-4.3c-0.1-1.7-0.7-2.8-1.8-3.4c-0.6-0.3-1.7-0.5-3.1-0.5h-7.7v11.1h-3.5V-385z
						 M-447.1-373.1c1.6,0,2.9-0.3,3.8-1s1.4-1.8,1.4-3.6c0-1.8-0.6-3.1-1.9-3.8c-0.7-0.4-1.6-0.5-2.8-0.5h-8.3v8.8H-447.1z"/>
				</g>
				<g class="st2">
					<path class="st6" d="M-421.7-377.4c1.2,0.6,2.2,1.4,2.8,2.4c0.6,0.9,1,2.1,1.3,3.3c0.2,0.9,0.3,2.2,0.3,4.1H-431
						c0.1,1.9,0.5,3.5,1.3,4.6c0.8,1.2,2.1,1.7,3.9,1.7c1.6,0,2.9-0.5,3.9-1.6c0.5-0.6,0.9-1.4,1.2-2.2h3.1
						c-0.1,0.7-0.4,1.5-0.8,2.3s-1,1.5-1.5,2.1c-1,0.9-2.1,1.6-3.5,1.9c-0.8,0.2-1.6,0.3-2.6,0.3c-2.3,0-4.3-0.9-5.9-2.6
						c-1.6-1.7-2.4-4.1-2.4-7.2c0-3,0.8-5.5,2.4-7.4c1.6-1.9,3.8-2.8,6.4-2.8C-424.3-378.4-423-378.1-421.7-377.4z M-420.6-370
						c-0.1-1.4-0.4-2.5-0.9-3.3c-0.9-1.5-2.3-2.3-4.3-2.3c-1.4,0-2.6,0.5-3.6,1.6c-1,1-1.5,2.4-1.6,4H-420.6z"/>
				</g>
				<g class="st2">
					<path class="st6" d="M-411.4-365c0.1,1.1,0.4,1.9,0.8,2.4c0.8,1,2.2,1.5,4.2,1.5c1.2,0,2.2-0.3,3.2-0.8s1.4-1.3,1.4-2.4
						c0-0.8-0.4-1.4-1.1-1.8c-0.5-0.3-1.4-0.6-2.8-0.9l-2.6-0.6c-1.6-0.4-2.8-0.8-3.6-1.3c-1.4-0.9-2.1-2-2.1-3.6
						c0-1.8,0.7-3.2,2-4.3c1.3-1.1,3-1.7,5.2-1.7c2.9,0,4.9,0.8,6.2,2.5c0.8,1.1,1.2,2.2,1.2,3.4h-3c-0.1-0.7-0.3-1.4-0.8-1.9
						c-0.7-0.8-2-1.2-3.9-1.2c-1.2,0-2.2,0.2-2.8,0.7s-0.9,1.1-0.9,1.8c0,0.8,0.4,1.5,1.2,2c0.5,0.3,1.2,0.5,2.1,0.8l2.1,0.5
						c2.3,0.6,3.9,1.1,4.7,1.6c1.2,0.8,1.8,2.1,1.8,3.8c0,1.7-0.6,3.1-1.9,4.3c-1.3,1.2-3.2,1.8-5.9,1.8c-2.8,0-4.8-0.6-6-1.9
						s-1.8-2.8-1.9-4.7H-411.4z"/>
				</g>
				<g class="st2">
					<path class="st6" d="M-383.7-377.4c1.2,0.6,2.2,1.4,2.8,2.4c0.6,0.9,1,2.1,1.3,3.3c0.2,0.9,0.3,2.2,0.3,4.1H-393
						c0.1,1.9,0.5,3.5,1.3,4.6c0.8,1.2,2.1,1.7,3.9,1.7c1.6,0,2.9-0.5,3.9-1.6c0.5-0.6,0.9-1.4,1.2-2.2h3.1
						c-0.1,0.7-0.4,1.5-0.8,2.3s-1,1.5-1.5,2.1c-1,0.9-2.1,1.6-3.5,1.9c-0.8,0.2-1.6,0.3-2.6,0.3c-2.3,0-4.3-0.9-5.9-2.6
						c-1.6-1.7-2.4-4.1-2.4-7.2c0-3,0.8-5.5,2.4-7.4c1.6-1.9,3.8-2.8,6.4-2.8C-386.2-378.4-384.9-378.1-383.7-377.4z M-382.6-370
						c-0.1-1.4-0.4-2.5-0.9-3.3c-0.9-1.5-2.3-2.3-4.3-2.3c-1.4,0-2.6,0.5-3.6,1.6c-1,1-1.5,2.4-1.6,4H-382.6z"/>
				</g>
				<g class="st2">
					<path class="st6" d="M-365.2-370.5c0.7-0.1,1.2-0.4,1.5-0.9c0.1-0.3,0.2-0.7,0.2-1.2c0-1.1-0.4-1.9-1.1-2.4
						c-0.8-0.5-1.9-0.7-3.3-0.7c-1.6,0-2.8,0.4-3.5,1.3c-0.4,0.5-0.6,1.2-0.8,2.2h-3c0.1-2.3,0.8-3.9,2.3-4.9s3.1-1.4,5-1.4
						c2.2,0,4,0.4,5.4,1.3c1.4,0.8,2.1,2.2,2.1,3.9v10.8c0,0.3,0.1,0.6,0.2,0.8s0.4,0.3,0.9,0.3c0.1,0,0.3,0,0.5,0s0.4,0,0.6-0.1
						v2.3c-0.5,0.1-0.9,0.2-1.1,0.3s-0.6,0.1-1.1,0.1c-1.1,0-1.9-0.4-2.4-1.2c-0.3-0.4-0.4-1-0.5-1.7c-0.6,0.8-1.6,1.6-2.8,2.2
						c-1.2,0.6-2.5,0.9-4,0.9c-1.7,0-3.2-0.5-4.3-1.6s-1.7-2.4-1.7-4c0-1.7,0.5-3.1,1.6-4.1c1.1-1,2.5-1.6,4.3-1.8L-365.2-370.5z
						 M-371.9-362c0.7,0.5,1.5,0.8,2.4,0.8c1.1,0,2.2-0.3,3.2-0.8c1.8-0.9,2.6-2.3,2.6-4.2v-2.5c-0.4,0.2-0.9,0.5-1.5,0.6
						s-1.2,0.3-1.8,0.4l-1.9,0.2c-1.1,0.2-2,0.4-2.6,0.7c-1,0.5-1.5,1.4-1.5,2.6C-372.9-363.2-372.5-362.5-371.9-362z"/>
				</g>
				<g class="st2">
					<path class="st6" d="M-355.2-378h3v3.3c0.2-0.6,0.8-1.4,1.8-2.3s2.1-1.4,3.3-1.4c0.1,0,0.2,0,0.3,0s0.4,0,0.7,0.1v3.3
						c-0.2,0-0.4-0.1-0.5-0.1s-0.3,0-0.5,0c-1.6,0-2.8,0.5-3.7,1.5s-1.3,2.2-1.3,3.5v10.8h-3.2V-378z"/>
				</g>
				<g class="st2">
					<path class="st6" d="M-330.9-377c1.3,1,2.1,2.8,2.4,5.3h-3.1c-0.2-1.2-0.6-2.1-1.3-2.9s-1.7-1.2-3.2-1.2c-2,0-3.5,1-4.3,2.9
						c-0.6,1.3-0.8,2.9-0.8,4.7c0,1.9,0.4,3.5,1.2,4.8s2.1,1.9,3.8,1.9c1.3,0,2.4-0.4,3.1-1.2s1.3-1.9,1.6-3.3h3.1
						c-0.4,2.5-1.2,4.3-2.6,5.5s-3.2,1.7-5.4,1.7c-2.5,0-4.4-0.9-5.9-2.7s-2.2-4-2.2-6.7c0-3.3,0.8-5.9,2.4-7.7s3.7-2.8,6.1-2.8
						C-333.9-378.5-332.2-378-330.9-377z"/>
				</g>
				<g class="st2">
					<path class="st6" d="M-325.3-385h3.2v9.6c0.8-0.9,1.4-1.6,2-2c1-0.7,2.3-1,3.8-1c2.7,0,4.6,1,5.6,2.9c0.5,1,0.8,2.5,0.8,4.3
						v12.1h-3.3V-371c0-1.4-0.2-2.4-0.5-3c-0.6-1-1.7-1.5-3.2-1.5c-1.3,0-2.5,0.5-3.6,1.4s-1.6,2.6-1.6,5.1v10h-3.2V-385z"/>
				</g>
			</g>
			<g id="g509" transform="matrix(0.00230763,0.9999973,0.9999973,-0.00230763,694.7682,567.4525)">
				<path id="path511" inkscape:connector-curvature="0" class="st7" d="M-361.3-465.6l-199.1,0.9"/>
			</g>
			<g id="g513" transform="translate(526,567)">
				<g class="st2">
					<path class="st3" d="M-518.9-392.6h13.4c4.5,0,8.1,1.6,10.6,4.9c2.2,2.9,3.3,6.7,3.3,11.3c0,3.6-0.7,6.8-2,9.6
						c-2.3,5.1-6.3,7.6-12,7.6h-13.3V-392.6z M-506.4-363c1.5,0,2.7-0.2,3.7-0.5c1.7-0.6,3.1-1.7,4.2-3.4c0.9-1.4,1.5-3.1,1.9-5.2
						c0.2-1.3,0.3-2.4,0.3-3.5c0-4.1-0.8-7.4-2.4-9.7c-1.6-2.3-4.2-3.4-7.8-3.4h-7.9v25.7H-506.4z"/>
				</g>
				<g class="st2">
					<path class="st3" d="M-470.9-382.9c1.6,0.8,2.8,1.9,3.7,3.2c0.8,1.2,1.4,2.7,1.6,4.3c0.2,1.1,0.4,2.9,0.4,5.4h-17.8
						c0.1,2.5,0.7,4.5,1.7,6s2.8,2.3,5,2.3c2.1,0,3.8-0.7,5.1-2.1c0.7-0.8,1.2-1.8,1.5-2.9h4c-0.1,0.9-0.5,1.9-1.1,3
						c-0.6,1.1-1.3,2-2,2.7c-1.2,1.2-2.8,2-4.6,2.5c-1,0.2-2.1,0.4-3.3,0.4c-3,0-5.6-1.1-7.7-3.3c-2.1-2.2-3.1-5.3-3.1-9.3
						c0-3.9,1.1-7.1,3.2-9.5c2.1-2.4,4.9-3.7,8.3-3.7C-474.2-384.1-472.5-383.7-470.9-382.9z M-469.4-373.3
						c-0.2-1.8-0.5-3.2-1.2-4.3c-1.1-2-3-3-5.6-3c-1.9,0-3.4,0.7-4.7,2c-1.3,1.4-1.9,3.1-2,5.2H-469.4z"/>
				</g>
			</g>
			<g id="g519" transform="translate(526,567)">
				<g class="st2">
					<path class="st4" d="M-435.8-390.2c2.3,2.2,3.6,4.8,3.9,7.6h-4.4c-0.5-2.2-1.5-3.9-2.9-5.1c-1.5-1.3-3.5-1.9-6.2-1.9
						c-3.2,0-5.9,1.2-7.8,3.5c-2,2.3-3,5.9-3,10.7c0,3.9,0.9,7.1,2.7,9.5c1.8,2.4,4.5,3.7,8,3.7c3.3,0,5.8-1.3,7.5-3.9
						c0.9-1.4,1.6-3.1,2-5.3h4.4c-0.4,3.5-1.7,6.5-3.9,8.9c-2.6,2.9-6.2,4.3-10.6,4.3c-3.8,0-7.1-1.2-9.7-3.5
						c-3.4-3.1-5.2-7.9-5.2-14.4c0-4.9,1.3-9,3.9-12.2c2.8-3.4,6.6-5.2,11.6-5.2C-441.3-393.5-438.1-392.4-435.8-390.2z"/>
				</g>
			</g>
			<g id="g525" transform="translate(526,567)">
				<g class="st2">
					<path class="st5" d="M-425.8-392.6h4.5v29.5h16.8v4h-21.3V-392.6z"/>
				</g>
				<g class="st2">
					<path class="st5" d="M-387.3-373.9c0.9-0.1,1.6-0.5,1.9-1.2c0.2-0.4,0.3-0.9,0.3-1.6c0-1.4-0.5-2.4-1.5-3.1
						c-1-0.6-2.4-0.9-4.3-0.9c-2.1,0-3.7,0.6-4.5,1.7c-0.5,0.6-0.8,1.6-1,2.9h-3.8c0.1-3,1.1-5.1,2.9-6.3c1.9-1.2,4-1.8,6.5-1.8
						c2.9,0,5.2,0.5,7,1.6c1.8,1.1,2.7,2.8,2.7,5.1v14.1c0,0.4,0.1,0.8,0.3,1c0.2,0.3,0.5,0.4,1.1,0.4c0.2,0,0.4,0,0.6,0
						c0.2,0,0.5-0.1,0.7-0.1v3c-0.6,0.2-1.1,0.3-1.5,0.3c-0.3,0-0.8,0.1-1.4,0.1c-1.4,0-2.4-0.5-3.1-1.5c-0.3-0.5-0.6-1.3-0.7-2.3
						c-0.8,1.1-2,2-3.6,2.8c-1.6,0.8-3.3,1.2-5.2,1.2c-2.3,0-4.1-0.7-5.5-2.1c-1.4-1.4-2.2-3.1-2.2-5.2c0-2.3,0.7-4,2.1-5.3
						c1.4-1.2,3.3-2,5.6-2.3L-387.3-373.9z M-395.9-362.8c0.9,0.7,1.9,1,3.1,1c1.4,0,2.8-0.3,4.2-1c2.3-1.1,3.4-2.9,3.4-5.4v-3.3
						c-0.5,0.3-1.1,0.6-1.9,0.8c-0.8,0.2-1.6,0.4-2.3,0.5l-2.5,0.3c-1.5,0.2-2.6,0.5-3.4,0.9c-1.3,0.7-1.9,1.8-1.9,3.4
						C-397.2-364.4-396.8-363.5-395.9-362.8z"/>
				</g>
			</g>
			<g id="g531" transform="translate(526,567)">
				<g class="st2">
					<path class="st6" d="M-373.3-392.6h15.2c2.5,0,4.6,0.4,6.2,1.1c3.1,1.4,4.6,4.1,4.6,7.9c0,2-0.4,3.6-1.2,4.9
						c-0.8,1.3-2,2.3-3.5,3.1c1.3,0.5,2.3,1.2,3,2.1c0.7,0.9,1,2.3,1.1,4.2l0.2,4.5c0,1.3,0.2,2.2,0.3,2.8c0.3,1.1,0.8,1.7,1.5,2.1
						v0.8h-5.6c-0.2-0.3-0.3-0.7-0.4-1.1c-0.1-0.5-0.2-1.3-0.2-2.6l-0.3-5.6c-0.1-2.2-0.9-3.7-2.4-4.4c-0.8-0.4-2.2-0.6-4-0.6h-10
						v14.4h-4.5V-392.6z M-358.6-377.3c2.1,0,3.7-0.4,4.9-1.3c1.2-0.9,1.8-2.4,1.8-4.6c0-2.4-0.8-4-2.5-4.9
						c-0.9-0.5-2.1-0.7-3.6-0.7h-10.8v11.4H-358.6z"/>
				</g>
				<g class="st2">
					<path class="st6" d="M-325.6-382.9c1.6,0.8,2.8,1.9,3.7,3.2c0.8,1.2,1.4,2.7,1.6,4.3c0.2,1.1,0.4,2.9,0.4,5.4h-17.8
						c0.1,2.5,0.7,4.5,1.7,6s2.8,2.3,5,2.3c2.1,0,3.8-0.7,5.1-2.1c0.7-0.8,1.2-1.8,1.5-2.9h4c-0.1,0.9-0.5,1.9-1.1,3
						c-0.6,1.1-1.3,2-2,2.7c-1.2,1.2-2.8,2-4.6,2.5c-1,0.2-2.1,0.4-3.3,0.4c-3,0-5.6-1.1-7.7-3.3c-2.1-2.2-3.1-5.3-3.1-9.3
						c0-3.9,1.1-7.1,3.2-9.5c2.1-2.4,4.9-3.7,8.3-3.7C-328.9-384.1-327.2-383.7-325.6-382.9z M-324.1-373.3
						c-0.2-1.8-0.5-3.2-1.2-4.3c-1.1-2-3-3-5.6-3c-1.9,0-3.4,0.7-4.7,2c-1.3,1.4-1.9,3.1-2,5.2H-324.1z"/>
				</g>
			</g>
		</g>
	</g>
</g>
<g id="g537">
	<g>
		<defs>
			<rect id="SVGID_3_" x="137.9" y="47.9" width="15.1" height="12.7"/>
		</defs>
		<clipPath id="SVGID_4_">
			<use xlink:href="#SVGID_3_"  style="overflow:visible;"/>
		</clipPath>
		<g id="g539" class="st8">
			<path id="path545" inkscape:connector-curvature="0" d="M139.2,59.3h12.5V49.2h-12.5V59.3z"/>
		</g>
	</g>
</g>
<g id="g547">
	<g>
		<defs>
			<rect id="SVGID_5_" x="67.2" y="3.1" width="77.5" height="77.5"/>
		</defs>
		<clipPath id="SVGID_6_">
			<use xlink:href="#SVGID_5_"  style="overflow:visible;"/>
		</clipPath>
		<g id="g549" class="st9">
			<path id="path555" inkscape:connector-curvature="0" d="M106,4.4c0.2,0,4.5,0,8.9,0.5c14.7,1.8,26.2,13.3,28,28
				c0.5,4.4,0.5,8.8,0.5,8.9s0,4.5-0.5,8.9c-1.8,14.7-13.3,26.2-28,28c-4.4,0.5-8.8,0.5-8.9,0.5c-0.2,0-4.5,0-8.9-0.5
				c-14.7-1.8-26.2-13.3-28-28c-0.5-4.4-0.5-8.8-0.5-8.9s0-4.5,0.5-8.9c1.8-14.7,13.3-26.2,28-28C101.5,4.4,105.8,4.4,106,4.4z"/>
		</g>
	</g>
</g>
<g id="g557">
	<g>
		<defs>
			<rect id="SVGID_7_" x="71.7" y="4.9" width="68.6" height="68.6"/>
		</defs>
		<clipPath id="SVGID_8_">
			<use xlink:href="#SVGID_7_"  style="overflow:visible;"/>
		</clipPath>
		<g id="g559" class="st10">
			<path id="path565" inkscape:connector-curvature="0" class="st1" d="M106,6.2c0.1,0,4,0,7.9,0.4c12.9,1.6,23.1,11.8,24.7,24.7
				c0.4,3.9,0.4,7.7,0.4,7.9c0,0.1,0,4-0.4,7.9c-1.6,12.9-11.8,23.1-24.7,24.7c-3.9,0.4-7.7,0.4-7.9,0.4c-0.1,0-4,0-7.9-0.4
				C85.2,70.1,75,59.9,73.4,47C73,43.1,73,39.3,73,39.1c0-0.1,0-4,0.4-7.9C75,18.3,85.2,8.2,98.1,6.6C102,6.2,105.8,6.2,106,6.2z"/>
		</g>
	</g>
</g>
<g id="g567">
	<g>
		<defs>
			<rect id="SVGID_9_" x="61.1" y="-5.7" width="89.8" height="59.3"/>
		</defs>
		<clipPath id="SVGID_10_">
			<use xlink:href="#SVGID_9_"  style="overflow:visible;"/>
		</clipPath>
		<g id="g569" class="st11">
			<path id="path575" inkscape:connector-curvature="0" class="st1" d="M62.4,52.3h87.1V-4.3H62.4V52.3z"/>
		</g>
	</g>
</g>
<g id="g577">
	<g>
		<defs>
			<rect id="SVGID_11_" x="59" y="47.9" width="15.1" height="12.7"/>
		</defs>
		<clipPath id="SVGID_12_">
			<use xlink:href="#SVGID_11_"  style="overflow:visible;"/>
		</clipPath>
		<g id="g579" class="st12">
			<path id="path585" inkscape:connector-curvature="0" d="M60.3,59.3h12.5V49.2H60.3V59.3z"/>
		</g>
	</g>
</g>
<g id="g587">
	<g>
		<defs>
			<rect id="SVGID_13_" x="52.8" y="136.6" width="106.3" height="20.3"/>
		</defs>
		<clipPath id="SVGID_14_">
			<use xlink:href="#SVGID_13_"  style="overflow:visible;"/>
		</clipPath>
		<g id="g589" class="st13">
			<path id="path595" inkscape:connector-curvature="0" d="M54.2,155.6h103.6V138H54.2V155.6z"/>
		</g>
	</g>
</g>
<g id="g597">
	<g>
		<defs>
			<rect id="SVGID_15_" x="68.2" y="84.2" width="75.6" height="48.7"/>
		</defs>
		<clipPath id="SVGID_16_">
			<use xlink:href="#SVGID_15_"  style="overflow:visible;"/>
		</clipPath>
		<g id="g599" class="st14">
			<path id="path605" inkscape:connector-curvature="0" d="M69.5,131.6h72.9v-46H69.5V131.6z"/>
		</g>
	</g>
</g>
<g id="g607">
	<g>
		<defs>
			<rect id="SVGID_17_" x="75.4" y="116.8" width="61.2" height="9.7"/>
		</defs>
		<clipPath id="SVGID_18_">
			<use xlink:href="#SVGID_17_"  style="overflow:visible;"/>
		</clipPath>
		<g id="g609" class="st15">
			<path id="path615" inkscape:connector-curvature="0" class="st1" d="M76.7,125.2h58.6v-7.1H76.7V125.2z"/>
		</g>
	</g>
</g>
<g id="g617">
	<g>
		<defs>
			<rect id="SVGID_19_" x="75.4" y="89.5" width="61.2" height="24.8"/>
		</defs>
		<clipPath id="SVGID_20_">
			<use xlink:href="#SVGID_19_"  style="overflow:visible;"/>
		</clipPath>
		<g id="g619" class="st16">
			<path id="path625" inkscape:connector-curvature="0" class="st1" d="M76.7,113h58.6V90.8H76.7V113z"/>
		</g>
	</g>
</g>
<g id="g627">
	<g>
		<defs>
			
				<rect id="SVGID_21_" x="95.5" y="1.9" transform="matrix(0.9301 -0.3673 0.3673 0.9301 2.7367 38.5494)" width="14.4" height="20.3"/>
		</defs>
		<clipPath id="SVGID_22_">
			<use xlink:href="#SVGID_21_"  style="overflow:visible;"/>
		</clipPath>
		<g id="g629" class="st17">
			<g>
				<defs>
					<rect id="SVGID_23_" x="-698" y="-60.1" width="1365.3" height="1024"/>
				</defs>
				<clipPath id="SVGID_24_">
					<use xlink:href="#SVGID_23_"  style="overflow:visible;"/>
				</clipPath>
				<g id="g635" class="st18">
					<path id="path641" inkscape:connector-curvature="0" d="M104.8,1.7L94,6l6.5,16.4l10.9-4.3L104.8,1.7z"/>
				</g>
			</g>
		</g>
	</g>
</g>
<g id="g643">
	<g>
		<defs>
			<rect id="SVGID_25_" x="82.7" y="0.5" width="21.4" height="23.1"/>
		</defs>
		<clipPath id="SVGID_26_">
			<use xlink:href="#SVGID_25_"  style="overflow:visible;"/>
		</clipPath>
		<g id="g645" class="st19">
			<g id="g651" transform="matrix(1,0,0,-1,587.9527,718.8403)">
				<path id="path653" inkscape:connector-curvature="0" class="st20" d="M-502,713.4c2.9-1.5,5.6-3.7,7.9-6.4c2.5-2.8,4.6-6.2,5-10
					"/>
			</g>
		</g>
	</g>
</g>
<g id="g655">
	<g>
		<defs>
			<rect id="SVGID_27_" x="52.8" y="14.6" width="106.3" height="39.8"/>
		</defs>
		<clipPath id="SVGID_28_">
			<use xlink:href="#SVGID_27_"  style="overflow:visible;"/>
		</clipPath>
		<g id="g657" class="st21">
			<path id="path663" inkscape:connector-curvature="0" d="M54.2,53h103.6V15.9H54.2V53z"/>
		</g>
	</g>
</g>
<g id="g665">
	<g>
		<defs>
			<rect id="SVGID_29_" x="58.9" y="22.1" width="94.1" height="32.5"/>
		</defs>
		<clipPath id="SVGID_30_">
			<use xlink:href="#SVGID_29_"  style="overflow:visible;"/>
		</clipPath>
		<g id="g667" class="st22">
			<path id="path673" inkscape:connector-curvature="0" class="st1" d="M60.3,53.3h91.4V23.5H60.3V53.3z"/>
		</g>
	</g>
</g>
<g id="g675">
	<g>
		<defs>
			<rect id="SVGID_31_" x="109.7" y="24.1" width="29.4" height="15.6"/>
		</defs>
		<clipPath id="SVGID_32_">
			<use xlink:href="#SVGID_31_"  style="overflow:visible;"/>
		</clipPath>
		<g id="g677" class="st23">
			<path id="path683" inkscape:connector-curvature="0" class="st1" d="M111,38.4h26.7V25.5H111V38.4z"/>
		</g>
	</g>
</g>
<g id="g685">
	<g>
		<defs>
			<rect id="SVGID_33_" x="74.6" y="27.4" width="24.7" height="24.7"/>
		</defs>
		<clipPath id="SVGID_34_">
			<use xlink:href="#SVGID_33_"  style="overflow:visible;"/>
		</clipPath>
		<g id="g687" class="st24">
			<path id="path693" inkscape:connector-curvature="0" class="st25" d="M94.8,31.9c4.3,4.3,4.3,11.3,0,15.6
				c-4.3,4.3-11.3,4.3-15.6,0c-4.3-4.3-4.3-11.3,0-15.6C83.5,27.6,90.4,27.6,94.8,31.9z"/>
		</g>
	</g>
</g>
<g id="g695">
	<g>
		<defs>
			<rect id="SVGID_35_" x="112.5" y="42.4" width="24.9" height="7.3"/>
		</defs>
		<clipPath id="SVGID_36_">
			<use xlink:href="#SVGID_35_"  style="overflow:visible;"/>
		</clipPath>
		<g id="g697" class="st26">
			<path id="path703" inkscape:connector-curvature="0" class="st27" d="M113.8,48.3H136v-4.6h-22.2V48.3z"/>
		</g>
	</g>
</g>
<g id="g705">
	<g>
		<defs>
			<rect id="SVGID_37_" x="111.5" y="35.7" transform="matrix(0.866 -0.5 0.5 0.866 -3.3486 66.9234)" width="23.4" height="8.1"/>
		</defs>
		<clipPath id="SVGID_38_">
			<use xlink:href="#SVGID_37_"  style="overflow:visible;"/>
		</clipPath>
		<g id="g707" class="st28">
			<g>
				<defs>
					<rect id="SVGID_39_" x="-698" y="-60.1" width="1365.3" height="1024"/>
				</defs>
				<clipPath id="SVGID_40_">
					<use xlink:href="#SVGID_39_"  style="overflow:visible;"/>
				</clipPath>
				<g id="g713" class="st29">
					<path id="path719" inkscape:connector-curvature="0" class="st27" d="M113.9,43.7l16.9-11.6l1.7,3.5l-16.9,11.6L113.9,43.7z"/>
				</g>
			</g>
		</g>
	</g>
</g>
</svg>
