<?xml version="1.0" encoding="utf-8"?>
<!-- Generator: Adobe Illustrator 24.0.3, SVG Export Plug-In . SVG Version: 6.00 Build 0)  -->
<svg version="1.1" id="Layer_1" xmlns="http://www.w3.org/2000/svg" xmlns:xlink="http://www.w3.org/1999/xlink" x="0px" y="0px"
	 viewBox="0 0 344 274.6" style="enable-background:new 0 0 344 274.6;" xml:space="preserve">
<style type="text/css">
	.st0{clip-path:url(#SVGID_2_);fill:#FFFFFF;}
	.st1{clip-path:url(#SVGID_2_);}
	.st2{fill:#4285F4;}
	.st3{font-family:'Futura-Medium';}
	.st4{font-size:27px;}
	.st5{fill:#004D80;}
	.st6{fill:#34A853;}
	.st7{fill:#EB4336;}
	.st8{fill:#B51700;}
	.st9{fill:#FFB100;}
	.st10{clip-path:url(#SVGID_4_);}
	.st11{clip-path:url(#SVGID_6_);}
	.st12{clip-path:url(#SVGID_8_);fill:#FFFFFF;}
	.st13{clip-path:url(#SVGID_10_);fill:#FFFFFF;}
	.st14{clip-path:url(#SVGID_12_);}
	.st15{clip-path:url(#SVGID_14_);}
	.st16{clip-path:url(#SVGID_16_);}
	.st17{clip-path:url(#SVGID_18_);fill:#FFFFFF;}
	.st18{clip-path:url(#SVGID_20_);fill:#FFFFFF;}
	.st19{clip-path:url(#SVGID_22_);}
	.st20{clip-path:url(#SVGID_24_);}
	.st21{clip-path:url(#SVGID_26_);fill:none;stroke:#FFFFFF;stroke-width:6;}
	.st22{clip-path:url(#SVGID_28_);}
	.st23{clip-path:url(#SVGID_30_);fill:#FFFFFF;}
	.st24{clip-path:url(#SVGID_32_);fill:#34A853;}
	.st25{clip-path:url(#SVGID_34_);fill:#EB4336;}
	.st26{clip-path:url(#SVGID_36_);}
	.st27{clip-path:url(#SVGID_38_);fill:#EB4336;}
	.st28{clip-path:url(#SVGID_40_);fill:none;stroke:#313131;stroke-width:3;}
	.st29{clip-path:url(#SVGID_40_);}
	.st30{fill:#4086F5;}
	.st31{font-size:82px;}
	.st32{fill:#36A853;}
	.st33{fill:#FBBC06;}
	.st34{letter-spacing:-1;}
</style>
<g>
	<defs>
		<rect id="SVGID_1_" x="-249" y="-151.4" width="1024" height="768"/>
	</defs>
	<clipPath id="SVGID_2_">
		<use xlink:href="#SVGID_1_"  style="overflow:visible;"/>
	</clipPath>
	<rect x="-249" y="-151.4" class="st0" width="1024" height="768"/>
	<g class="st1">
		<text transform="matrix(1 0 0 1 187 44.6154)" class="st2 st3 st4">Deep</text>
	</g>
	<g class="st1">
		<text transform="matrix(1 0 0 1 252.6675 44.6154)" class="st5 st3 st4"> </text>
	</g>
	<g class="st1">
		<text transform="matrix(1 0 0 1 187 80.6154)" class="st6 st3 st4">Cognition </text>
	</g>
	<g class="st1">
		<text transform="matrix(1 0 0 1 187 116.6154)" class="st3 st4">and </text>
	</g>
	<g class="st1">
		<text transform="matrix(1 0 0 1 187 152.6154)" class="st7 st3 st4">Language</text>
	</g>
	<g class="st1">
		<text transform="matrix(1 0 0 1 308.1309 152.6154)" class="st8 st3 st4">  </text>
	</g>
	<g class="st1">
		<text transform="matrix(1 0 0 1 187 188.6154)"><tspan x="0" y="0" class="st9 st3 st4">R</tspan><tspan x="15.8" y="0" class="st9 st3 st4">esea</tspan><tspan x="72.8" y="0" class="st9 st3 st4">r</tspan><tspan x="82.7" y="0" class="st9 st3 st4">c</tspan><tspan x="96.3" y="0" class="st9 st3 st4">h</tspan></text>
	</g>
</g>
<g>
	<defs>
		<rect id="SVGID_3_" x="132.6" y="62.7" width="16.6" height="13.8"/>
	</defs>
	<clipPath id="SVGID_4_">
		<use xlink:href="#SVGID_3_"  style="overflow:visible;"/>
	</clipPath>
	<rect x="133.6" y="63.7" class="st10" width="14.6" height="11.8"/>
</g>
<g>
	<defs>
		<rect id="SVGID_5_" x="49.9" y="10.2" width="89.6" height="89.6"/>
	</defs>
	<clipPath id="SVGID_6_">
		<use xlink:href="#SVGID_5_"  style="overflow:visible;"/>
	</clipPath>
	<path class="st11" d="M94.7,11.2c0.2,0,5.3,0,10.5,0.5c17.2,2.1,30.7,15.6,32.8,32.8c0.5,5.2,0.5,10.3,0.5,10.5
		c0,0.2,0,5.3-0.5,10.5c-2.1,17.2-15.6,30.7-32.8,32.8c-5.2,0.5-10.3,0.5-10.5,0.5c-0.2,0-5.3,0-10.5-0.5
		c-17.2-2.1-30.7-15.6-32.8-32.8c-0.5-5.2-0.5-10.3-0.5-10.5c0-0.2,0-5.3,0.5-10.5c2.1-17.2,15.6-30.7,32.8-32.8
		C89.4,11.2,94.5,11.2,94.7,11.2z"/>
</g>
<g>
	<defs>
		<rect id="SVGID_7_" x="55.2" y="12.3" width="79.1" height="79.1"/>
	</defs>
	<clipPath id="SVGID_8_">
		<use xlink:href="#SVGID_7_"  style="overflow:visible;"/>
	</clipPath>
	<path class="st12" d="M94.7,13.3c0.2,0,4.6,0,9.2,0.5c15.1,1.8,27,13.8,28.9,28.9c0.5,4.6,0.5,9.1,0.5,9.2s0,4.6-0.5,9.2
		c-1.8,15.1-13.8,27-28.9,28.9c-4.6,0.5-9.1,0.5-9.2,0.5c-0.2,0-4.6,0-9.2-0.5c-15.1-1.8-27-13.8-28.9-28.9
		c-0.5-4.6-0.5-9.1-0.5-9.2s0-4.6,0.5-9.2c1.8-15.1,13.8-27,28.9-28.9C90.1,13.3,94.6,13.3,94.7,13.3z"/>
</g>
<g>
	<defs>
		<rect id="SVGID_9_" x="42.7" width="104" height="68.2"/>
	</defs>
	<clipPath id="SVGID_10_">
		<use xlink:href="#SVGID_9_"  style="overflow:visible;"/>
	</clipPath>
	<rect x="43.7" y="1" class="st13" width="102" height="66.2"/>
</g>
<g>
	<defs>
		<rect id="SVGID_11_" x="40.3" y="62.7" width="16.6" height="13.8"/>
	</defs>
	<clipPath id="SVGID_12_">
		<use xlink:href="#SVGID_11_"  style="overflow:visible;"/>
	</clipPath>
	<rect x="41.3" y="63.7" class="st14" width="14.6" height="11.8"/>
</g>
<g>
	<defs>
		<rect id="SVGID_13_" x="33.1" y="166.5" width="123.3" height="22.7"/>
	</defs>
	<clipPath id="SVGID_14_">
		<use xlink:href="#SVGID_13_"  style="overflow:visible;"/>
	</clipPath>
	<rect x="34.1" y="167.5" class="st15" width="121.3" height="20.7"/>
</g>
<g>
	<defs>
		<rect id="SVGID_15_" x="51.1" y="105.2" width="87.3" height="55.9"/>
	</defs>
	<clipPath id="SVGID_16_">
		<use xlink:href="#SVGID_15_"  style="overflow:visible;"/>
	</clipPath>
	<rect x="52.1" y="106.2" class="st16" width="85.3" height="53.9"/>
</g>
<g>
	<defs>
		<rect id="SVGID_17_" x="59.4" y="143.3" width="70.5" height="10.3"/>
	</defs>
	<clipPath id="SVGID_18_">
		<use xlink:href="#SVGID_17_"  style="overflow:visible;"/>
	</clipPath>
	<rect x="60.4" y="144.3" class="st17" width="68.5" height="8.3"/>
</g>
<g>
	<defs>
		<rect id="SVGID_19_" x="59.4" y="111.4" width="70.5" height="27.9"/>
	</defs>
	<clipPath id="SVGID_20_">
		<use xlink:href="#SVGID_19_"  style="overflow:visible;"/>
	</clipPath>
	<rect x="60.4" y="112.4" class="st18" width="68.5" height="25.9"/>
</g>
<g>
	<defs>
		
			<rect id="SVGID_21_" x="83" y="8.9" transform="matrix(0.9301 -0.3673 0.3673 0.9301 -1.0707 34.7723)" width="15.7" height="22.7"/>
	</defs>
	<clipPath id="SVGID_22_">
		<use xlink:href="#SVGID_21_"  style="overflow:visible;"/>
	</clipPath>
	<g class="st19">
		<defs>
			<rect id="SVGID_23_" x="-249" y="-151.4" width="1024" height="768"/>
		</defs>
		<clipPath id="SVGID_24_">
			<use xlink:href="#SVGID_23_"  style="overflow:visible;"/>
		</clipPath>
		
			<rect x="84" y="9.9" transform="matrix(0.9301 -0.3673 0.3673 0.9301 -1.0708 34.7719)" class="st20" width="13.7" height="20.7"/>
	</g>
</g>
<g>
	<defs>
		<rect id="SVGID_25_" x="71.5" y="8.7" width="21.5" height="24.2"/>
	</defs>
	<clipPath id="SVGID_26_">
		<use xlink:href="#SVGID_25_"  style="overflow:visible;"/>
	</clipPath>
	<path class="st21" d="M73.9,12.4c3.4,1.8,6.5,4.4,9.3,7.5c2.9,3.3,5.3,7.2,5.8,11.7"/>
</g>
<g>
	<defs>
		<rect id="SVGID_27_" x="33.1" y="23.6" width="123.3" height="45.4"/>
	</defs>
	<clipPath id="SVGID_28_">
		<use xlink:href="#SVGID_27_"  style="overflow:visible;"/>
	</clipPath>
	<rect x="34.1" y="24.6" class="st22" width="121.3" height="43.4"/>
</g>
<g>
	<defs>
		<rect id="SVGID_29_" x="40.2" y="32.5" width="109" height="36.9"/>
	</defs>
	<clipPath id="SVGID_30_">
		<use xlink:href="#SVGID_29_"  style="overflow:visible;"/>
	</clipPath>
	<rect x="41.2" y="33.5" class="st23" width="107" height="34.9"/>
</g>
<g>
	<defs>
		<rect id="SVGID_31_" x="58.6" y="38.6" width="27.8" height="27.8"/>
	</defs>
	<clipPath id="SVGID_32_">
		<use xlink:href="#SVGID_31_"  style="overflow:visible;"/>
	</clipPath>
	<circle class="st24" cx="72.5" cy="52.5" r="12.9"/>
</g>
<g>
	<defs>
		<rect id="SVGID_33_" x="102.9" y="56.2" width="28" height="7.4"/>
	</defs>
	<clipPath id="SVGID_34_">
		<use xlink:href="#SVGID_33_"  style="overflow:visible;"/>
	</clipPath>
	<rect x="103.9" y="57.2" class="st25" width="26" height="5.4"/>
</g>
<g>
	<defs>
		
			<rect id="SVGID_35_" x="101.5" y="48" transform="matrix(0.8572 -0.515 0.515 0.8572 -10.5005 66.4839)" width="26.2" height="8.3"/>
	</defs>
	<clipPath id="SVGID_36_">
		<use xlink:href="#SVGID_35_"  style="overflow:visible;"/>
	</clipPath>
	<g class="st26">
		<defs>
			<rect id="SVGID_37_" x="-249" y="-151.4" width="1024" height="768"/>
		</defs>
		<clipPath id="SVGID_38_">
			<use xlink:href="#SVGID_37_"  style="overflow:visible;"/>
		</clipPath>
		<polygon class="st27" points="103.8,57.1 123.4,43.2 125.4,47.3 105.9,61.1 		"/>
	</g>
</g>
<g>
	<defs>
		<rect id="SVGID_39_" x="-249" y="-151.4" width="1024" height="768"/>
	</defs>
	<clipPath id="SVGID_40_">
		<use xlink:href="#SVGID_39_"  style="overflow:visible;"/>
	</clipPath>
	<line class="st28" x1="172.9" y1="188.9" x2="172.9" y2="11.8"/>
	<g class="st29">
		<text transform="matrix(1 0 0 1 -1 263.6154)" class="st30 st3 st31">De</text>
	</g>
	<g class="st29">
		<text transform="matrix(1 0 0 1 103.9023 263.6154)" class="st32 st3 st31">C</text>
	</g>
	<g class="st29">
		<text transform="matrix(1 0 0 1 161.3584 263.6154)" class="st7 st3 st31">La</text>
	</g>
	<g class="st29">
		<text transform="matrix(1 0 0 1 246.8818 263.6154)"><tspan x="0" y="0" class="st33 st3 st31 st34">R</tspan><tspan x="48.1" y="0" class="st33 st3 st31">e</tspan></text>
	</g>
</g>
</svg>
