<?xml version="1.0" encoding="utf-8"?>
<!-- Generator: Adobe Illustrator 24.0.3, SVG Export Plug-In . SVG Version: 6.00 Build 0)  -->
<svg version="1.1" id="Layer_1" xmlns="http://www.w3.org/2000/svg" xmlns:xlink="http://www.w3.org/1999/xlink" x="0px" y="0px"
	 viewBox="0 0 925 490" style="enable-background:new 0 0 925 490;" xml:space="preserve">
<style type="text/css">
	.st0{clip-path:url(#SVGID_2_);fill:#FFFFFF;}
	.st1{clip-path:url(#SVGID_4_);}
	.st2{clip-path:url(#SVGID_8_);}
	.st3{font-family:'HelveticaNeue';}
	.st4{font-size:18px;}
	.st5{fill:#017B76;}
	.st6{font-family:'HelveticaNeue-Bold';}
	.st7{fill:#B51700;}
	.st8{letter-spacing:-1;}
	.st9{font-family:'HelveticaNeue-Italic';}
	.st10{clip-path:url(#SVGID_10_);}
	.st11{clip-path:url(#SVGID_12_);fill:none;stroke:#D85040;stroke-width:1.5;}
	.st12{clip-path:url(#SVGID_12_);fill:#D85040;}
	.st13{clip-path:url(#SVGID_12_);fill:none;stroke:#D85040;stroke-width:1.5;stroke-miterlimit:10;}
	.st14{clip-path:url(#SVGID_14_);}
	.st15{clip-path:url(#SVGID_16_);fill:none;stroke:#D85040;stroke-width:1.5;}
	.st16{clip-path:url(#SVGID_16_);fill:#D85040;}
	.st17{clip-path:url(#SVGID_16_);fill:none;stroke:#D85040;stroke-width:1.5;stroke-miterlimit:10;}
	.st18{clip-path:url(#SVGID_18_);}
	.st19{clip-path:url(#SVGID_20_);fill:none;stroke:#D85040;stroke-width:1.5;}
	.st20{clip-path:url(#SVGID_20_);fill:#D85040;}
	.st21{clip-path:url(#SVGID_20_);fill:none;stroke:#D85040;stroke-width:1.5;stroke-miterlimit:10;}
	.st22{clip-path:url(#SVGID_22_);}
	.st23{clip-path:url(#SVGID_24_);}
	.st24{clip-path:url(#SVGID_26_);fill:#FFFFFF;}
	.st25{clip-path:url(#SVGID_28_);fill:#FFFFFF;}
	.st26{clip-path:url(#SVGID_30_);}
	.st27{clip-path:url(#SVGID_32_);}
	.st28{clip-path:url(#SVGID_34_);}
	.st29{clip-path:url(#SVGID_36_);fill:#FFFFFF;}
	.st30{clip-path:url(#SVGID_38_);fill:#FFFFFF;}
	.st31{clip-path:url(#SVGID_40_);}
	.st32{clip-path:url(#SVGID_42_);}
	.st33{clip-path:url(#SVGID_44_);fill:none;stroke:#FFFFFF;stroke-width:6;}
	.st34{clip-path:url(#SVGID_46_);}
	.st35{clip-path:url(#SVGID_48_);fill:#FFFFFF;}
	.st36{clip-path:url(#SVGID_50_);fill:#FFFFFF;}
	.st37{clip-path:url(#SVGID_52_);fill:#34A853;}
	.st38{clip-path:url(#SVGID_54_);fill:#EB4336;}
	.st39{clip-path:url(#SVGID_56_);}
	.st40{clip-path:url(#SVGID_58_);fill:#EB4336;}
	.st41{clip-path:url(#SVGID_60_);}
</style>
<g>
	<defs>
		<rect id="SVGID_1_" x="-48" y="-37" width="1024" height="768"/>
	</defs>
	<clipPath id="SVGID_2_">
		<use xlink:href="#SVGID_1_"  style="overflow:visible;"/>
	</clipPath>
	<rect x="-48" y="-37" class="st0" width="1024" height="768"/>
</g>
<g>
	<defs>
		<rect id="SVGID_3_" x="599.9" y="294" width="78.1" height="74.6"/>
	</defs>
	<clipPath id="SVGID_4_">
		<use xlink:href="#SVGID_3_"  style="overflow:visible;"/>
	</clipPath>
	<g class="st1">
		<defs>
			<rect id="SVGID_5_" x="600.9" y="295" width="76.1" height="72.6"/>
		</defs>
		<clipPath id="SVGID_6_">
			<use xlink:href="#SVGID_5_"  style="overflow:visible;"/>
		</clipPath>
		<g style="clip-path:url(#SVGID_6_);">
			
				<image style="overflow:visible;" width="109" height="104" xlink:href="D17C738DC4700534.png"  transform="matrix(0.698 0 0 0.698 600.9324 295.0348)">
			</image>
		</g>
	</g>
</g>
<g>
	<defs>
		<rect id="SVGID_7_" x="589.8" y="105.1" width="291.1" height="165.6"/>
	</defs>
	<clipPath id="SVGID_8_">
		<use xlink:href="#SVGID_7_"  style="overflow:visible;"/>
	</clipPath>
	<g class="st2">
		<text transform="matrix(1 0 0 1 595 129)" class="st3 st4">The </text>
	</g>
	<g class="st2">
		<text transform="matrix(1 0 0 1 630.0098 129)" class="st5 st6 st4">colors </text>
	</g>
	<g class="st2">
		<text transform="matrix(1 0 0 1 688.6538 129)" class="st3 st4">in the eyes depict how </text>
	</g>
	<g class="st2">
		<text transform="matrix(1 0 0 1 595 151)" class="st3 st4">we infuse </text>
	</g>
	<g class="st2">
		<text transform="matrix(1 0 0 1 676.3242 151)" class="st7 st3 st4">emotions</text>
	</g>
	<g class="st2">
		<text transform="matrix(1 0 0 1 750.6821 151)" class="st3 st4"> into machines </text>
	</g>
	<g class="st2">
		<text transform="matrix(1 0 0 1 595 173)"><tspan x="0" y="0" class="st3 st4">th</tspan><tspan x="15.7" y="0" class="st3 st4">r</tspan><tspan x="21.4" y="0" class="st3 st4">ough cognition and language </tspan></text>
	</g>
	<g class="st2">
		<text transform="matrix(1 0 0 1 595 195)" class="st3 st4">understanding.</text>
	</g>
	<g class="st2">
		<text transform="matrix(1 0 0 1 595 239)"><tspan x="0" y="0" class="st3 st4">Like they sa</tspan><tspan x="96" y="0" class="st3 st4 st8">y</tspan><tspan x="103.7" y="0" class="st3 st4">, </tspan></text>
	</g>
	<g class="st2">
		<text transform="matrix(1 0 0 1 642.1747 261.164)"><tspan x="0" y="0" class="st9 st4">Eyes a</tspan><tspan x="52.3" y="0" class="st9 st4">r</tspan><tspan x="58" y="0" class="st9 st4">e gateway to the soul!</tspan></text>
	</g>
</g>
<g>
	<defs>
		<rect id="SVGID_9_" x="5.2" y="275.3" width="202.3" height="76.5"/>
	</defs>
	<clipPath id="SVGID_10_">
		<use xlink:href="#SVGID_9_"  style="overflow:visible;"/>
	</clipPath>
	<g class="st10">
		<text transform="matrix(1 0 0 1 10 298)"><tspan x="0" y="0" class="st3 st4">The structu</tspan><tspan x="91" y="0" class="st3 st4">r</tspan><tspan x="96.7" y="0" class="st3 st4">e of the </tspan></text>
	</g>
	<g class="st10">
		<text transform="matrix(1 0 0 1 10 320)"><tspan x="0" y="0" class="st3 st4">r</tspan><tspan x="5.7" y="0" class="st3 st4">obot is </tspan><tspan x="65.7" y="0" class="st3 st4">r</tspan><tspan x="71.4" y="0" class="st3 st4">eminiscent of </tspan></text>
	</g>
	<g class="st10">
		<text transform="matrix(1 0 0 1 10 342)"><tspan x="0" y="0" class="st3 st4">an old compute</tspan><tspan x="126.1" y="0" class="st3 st4 st8">r</tspan><tspan x="130.4" y="0" class="st3 st4">.</tspan></text>
	</g>
</g>
<g>
	<defs>
		<rect id="SVGID_11_" x="220.8" y="308.2" width="54" height="10"/>
	</defs>
	<clipPath id="SVGID_12_">
		<use xlink:href="#SVGID_11_"  style="overflow:visible;"/>
	</clipPath>
	<polyline class="st11" points="229.6,313.2 230.3,313.2 270.3,313.2 271.1,313.2 	"/>
	<polygon class="st12" points="273.8,317.1 269.9,313.2 273.8,309.4 	"/>
	<circle class="st13" cx="226" cy="313.3" r="3.2"/>
</g>
<g>
	<defs>
		<rect id="SVGID_13_" x="528.8" y="182.8" width="54" height="10"/>
	</defs>
	<clipPath id="SVGID_14_">
		<use xlink:href="#SVGID_13_"  style="overflow:visible;"/>
	</clipPath>
	<g class="st14">
		<defs>
			<rect id="SVGID_15_" x="-48" y="-37" width="1024" height="768"/>
		</defs>
		<clipPath id="SVGID_16_">
			<use xlink:href="#SVGID_15_"  style="overflow:visible;"/>
		</clipPath>
		<polyline class="st15" points="574,187.8 573.3,187.8 533.3,187.8 532.5,187.8 		"/>
		<polygon class="st16" points="529.8,183.8 533.7,187.8 529.8,191.7 		"/>
		<circle class="st17" cx="577.5" cy="187.8" r="3.2"/>
	</g>
</g>
<g>
	<defs>
		<rect id="SVGID_17_" x="516.8" y="328.2" width="54" height="10"/>
	</defs>
	<clipPath id="SVGID_18_">
		<use xlink:href="#SVGID_17_"  style="overflow:visible;"/>
	</clipPath>
	<g class="st18">
		<defs>
			<rect id="SVGID_19_" x="-48" y="-37" width="1024" height="768"/>
		</defs>
		<clipPath id="SVGID_20_">
			<use xlink:href="#SVGID_19_"  style="overflow:visible;"/>
		</clipPath>
		<polyline class="st19" points="562,333.2 561.3,333.2 521.3,333.2 520.5,333.2 		"/>
		<polygon class="st20" points="517.8,329.4 521.7,333.2 517.8,337.1 		"/>
		<circle class="st21" cx="565.5" cy="333.2" r="3.2"/>
	</g>
</g>
<g>
	<defs>
		<rect id="SVGID_21_" x="475" y="211.9" width="31.6" height="25.9"/>
	</defs>
	<clipPath id="SVGID_22_">
		<use xlink:href="#SVGID_21_"  style="overflow:visible;"/>
	</clipPath>
	<rect x="476" y="212.9" class="st22" width="29.6" height="23.9"/>
</g>
<g>
	<defs>
		<rect id="SVGID_23_" x="307.2" y="105.4" width="179.7" height="179.7"/>
	</defs>
	<clipPath id="SVGID_24_">
		<use xlink:href="#SVGID_23_"  style="overflow:visible;"/>
	</clipPath>
	<path class="st23" d="M397.1,106.4c0.4,0,10.7,0,21.2,1.1c34.8,4.2,62.3,31.7,66.5,66.5c1.1,10.5,1.1,20.9,1.1,21.2
		c0,0.4,0,10.7-1.1,21.2c-4.2,34.8-31.7,62.3-66.5,66.5c-10.5,1.1-20.9,1.1-21.2,1.1c-0.4,0-10.7,0-21.2-1.1
		c-34.8-4.2-62.3-31.7-66.5-66.5c-1.1-10.5-1.1-20.9-1.1-21.2c0-0.4,0-10.7,1.1-21.2c4.2-34.8,31.7-62.3,66.5-66.5
		C386.4,106.4,396.7,106.4,397.1,106.4z"/>
</g>
<g>
	<defs>
		<rect id="SVGID_25_" x="317.8" y="109.6" width="158.5" height="158.5"/>
	</defs>
	<clipPath id="SVGID_26_">
		<use xlink:href="#SVGID_25_"  style="overflow:visible;"/>
	</clipPath>
	<path class="st24" d="M397.1,110.6c0.3,0,9.4,0,18.7,1c30.7,3.7,54.9,27.9,58.6,58.6c1,9.3,1,18.4,1,18.7c0,0.3,0,9.4-1,18.7
		c-3.7,30.7-27.9,54.9-58.6,58.6c-9.3,1-18.4,1-18.7,1c-0.3,0-9.4,0-18.7-1c-30.7-3.7-54.9-27.9-58.6-58.6c-1-9.3-1-18.4-1-18.7
		c0-0.3,0-9.4,1-18.7c3.7-30.7,27.9-54.9,58.6-58.6C387.7,110.6,396.7,110.6,397.1,110.6z"/>
</g>
<g>
	<defs>
		<rect id="SVGID_27_" x="292.6" y="84.7" width="209" height="136.4"/>
	</defs>
	<clipPath id="SVGID_28_">
		<use xlink:href="#SVGID_27_"  style="overflow:visible;"/>
	</clipPath>
	<rect x="293.6" y="85.7" class="st25" width="207" height="134.4"/>
</g>
<g>
	<defs>
		<rect id="SVGID_29_" x="287.7" y="211.9" width="31.6" height="25.9"/>
	</defs>
	<clipPath id="SVGID_30_">
		<use xlink:href="#SVGID_29_"  style="overflow:visible;"/>
	</clipPath>
	<rect x="288.7" y="212.9" class="st26" width="29.6" height="23.9"/>
</g>
<g>
	<defs>
		<rect id="SVGID_31_" x="273" y="422.6" width="248.2" height="43.9"/>
	</defs>
	<clipPath id="SVGID_32_">
		<use xlink:href="#SVGID_31_"  style="overflow:visible;"/>
	</clipPath>
	<rect x="274" y="423.6" class="st27" width="246.2" height="41.9"/>
</g>
<g>
	<defs>
		<rect id="SVGID_33_" x="309.5" y="298.1" width="175.1" height="111.3"/>
	</defs>
	<clipPath id="SVGID_34_">
		<use xlink:href="#SVGID_33_"  style="overflow:visible;"/>
	</clipPath>
	<rect x="310.5" y="299.1" class="st28" width="173.1" height="109.3"/>
</g>
<g>
	<defs>
		<rect id="SVGID_35_" x="326.5" y="375.6" width="141.1" height="18.8"/>
	</defs>
	<clipPath id="SVGID_36_">
		<use xlink:href="#SVGID_35_"  style="overflow:visible;"/>
	</clipPath>
	<rect x="327.5" y="376.6" class="st29" width="139.1" height="16.8"/>
</g>
<g>
	<defs>
		<rect id="SVGID_37_" x="326.5" y="310.7" width="141.1" height="54.7"/>
	</defs>
	<clipPath id="SVGID_38_">
		<use xlink:href="#SVGID_37_"  style="overflow:visible;"/>
	</clipPath>
	<rect x="327.5" y="311.7" class="st30" width="139.1" height="52.7"/>
</g>
<g>
	<defs>
		
			<rect id="SVGID_39_" x="374.3" y="102.7" transform="matrix(0.9301 -0.3673 0.3673 0.9301 -18.5734 151.6695)" width="29.8" height="43.9"/>
	</defs>
	<clipPath id="SVGID_40_">
		<use xlink:href="#SVGID_39_"  style="overflow:visible;"/>
	</clipPath>
	<g class="st31">
		<defs>
			<rect id="SVGID_41_" x="-48" y="-37" width="1024" height="768"/>
		</defs>
		<clipPath id="SVGID_42_">
			<use xlink:href="#SVGID_41_"  style="overflow:visible;"/>
		</clipPath>
		
			<rect x="375.3" y="103.7" transform="matrix(0.9301 -0.3673 0.3673 0.9301 -18.5734 151.6683)" class="st32" width="27.8" height="41.9"/>
	</g>
</g>
<g>
	<defs>
		<rect id="SVGID_43_" x="347.1" y="105.1" width="37" height="44.1"/>
	</defs>
	<clipPath id="SVGID_44_">
		<use xlink:href="#SVGID_43_"  style="overflow:visible;"/>
	</clipPath>
	<path class="st33" d="M349.5,108.8c7,3.7,13.3,8.9,18.9,15.3c5.9,6.7,10.8,14.6,11.8,23.8"/>
</g>
<g>
	<defs>
		<rect id="SVGID_45_" x="273" y="132.7" width="248.2" height="90.1"/>
	</defs>
	<clipPath id="SVGID_46_">
		<use xlink:href="#SVGID_45_"  style="overflow:visible;"/>
	</clipPath>
	<rect x="274" y="133.7" class="st34" width="246.2" height="88.1"/>
</g>
<g>
	<defs>
		<rect id="SVGID_47_" x="287.5" y="150.7" width="219.1" height="72.8"/>
	</defs>
	<clipPath id="SVGID_48_">
		<use xlink:href="#SVGID_47_"  style="overflow:visible;"/>
	</clipPath>
	<rect x="288.5" y="151.7" class="st35" width="217.1" height="70.8"/>
</g>
<g>
	<defs>
		<rect id="SVGID_49_" x="408.1" y="155.4" width="65.5" height="32.6"/>
	</defs>
	<clipPath id="SVGID_50_">
		<use xlink:href="#SVGID_49_"  style="overflow:visible;"/>
	</clipPath>
	<rect x="409.1" y="156.4" class="st36" width="63.5" height="30.6"/>
</g>
<g>
	<defs>
		<rect id="SVGID_51_" x="324.7" y="163.1" width="54.3" height="54.3"/>
	</defs>
	<clipPath id="SVGID_52_">
		<use xlink:href="#SVGID_51_"  style="overflow:visible;"/>
	</clipPath>
	<circle class="st37" cx="351.9" cy="190.2" r="26.2"/>
</g>
<g>
	<defs>
		<rect id="SVGID_53_" x="414.7" y="198.7" width="54.7" height="13"/>
	</defs>
	<clipPath id="SVGID_54_">
		<use xlink:href="#SVGID_53_"  style="overflow:visible;"/>
	</clipPath>
	<rect x="415.7" y="199.7" class="st38" width="52.7" height="11"/>
</g>
<g>
	<defs>
		
			<rect id="SVGID_55_" x="412.4" y="182.8" transform="matrix(0.866 -0.5 0.5 0.866 -36.4402 244.4941)" width="51.2" height="14.9"/>
	</defs>
	<clipPath id="SVGID_56_">
		<use xlink:href="#SVGID_55_"  style="overflow:visible;"/>
	</clipPath>
	<g class="st39">
		<defs>
			<rect id="SVGID_57_" x="-48" y="-37" width="1024" height="768"/>
		</defs>
		<clipPath id="SVGID_58_">
			<use xlink:href="#SVGID_57_"  style="overflow:visible;"/>
		</clipPath>
		<polygon class="st40" points="415.9,199.8 456.1,172.4 460.1,180.7 419.9,208.1 		"/>
	</g>
</g>
<g>
	<defs>
		<rect id="SVGID_59_" x="665.3" y="306.2" width="263.7" height="54.5"/>
	</defs>
	<clipPath id="SVGID_60_">
		<use xlink:href="#SVGID_59_"  style="overflow:visible;"/>
	</clipPath>
	<g class="st41">
		<text transform="matrix(1 0 0 1 671 329)"><tspan x="0" y="0" class="st3 st4">The </tspan><tspan x="35" y="0" class="st3 st4">r</tspan><tspan x="40.7" y="0" class="st3 st4">obot illustrates </tspan></text>
	</g>
	<g class="st41">
		<text transform="matrix(1 0 0 1 835.3579 329)" class="st9 st4">DeCLaRe</text>
	</g>
	<g class="st41">
		<text transform="matrix(1 0 0 1 912.0381 329)" class="st3 st4"> </text>
	</g>
	<g class="st41">
		<text transform="matrix(1 0 0 1 671 351)" class="st3 st4">in Mandarin.</text>
	</g>
</g>
</svg>
