<?xml version="1.0" encoding="utf-8"?>
<svg xmlns="http://www.w3.org/2000/svg" xmlns:xlink="http://www.w3.org/1999/xlink"
  viewBox="0 0 360 356" xml:space="preserve" role="img" aria-labelledby="title desc"
  >
<title id="title">DeCLaRe square theme logo, dark theme</title>
<desc id="desc">Robot mascot, DeCLaRe wordmark, and the Deep Cognition and Language Research theme text.</desc>
<style type="text/css">
  /* DeCLaRe identity: wordmark purple #7C3AED; green eye
     #34A853; red angular eye #EB4336. */
  /* Classic robot: one themeable silhouette (currentColor) with interior detail
     carved out via #robot-knockout. */
  /* Premium line-art robot: chamfered panels in wordmark purple, faint fill,
     green/red eyes kept as the accent. */
  .r-panel { fill: #7C3AED; fill-opacity: .10; stroke: #7C3AED; stroke-width: 6; stroke-linejoin: miter; stroke-linecap: butt; }
  .r-line { fill: none; stroke: #7C3AED; stroke-width: 6; stroke-linecap: butt; stroke-linejoin: miter; }
  .r-node { fill: #7C3AED; }
  .thread { fill: none; stroke: #A78BFA; stroke-width: 5; stroke-linecap: butt; }
  .theme { fill: currentColor; font-family: Arial, Helvetica, sans-serif; font-size: 25px; font-weight: 500; letter-spacing: .2px; }
  /* Octagon style: lightweight monoline letters, bevel-cut (octagonal) corners,
     vertical gradient, and subtle "fused-lego" seams. */
  .octa { fill: none; stroke: url(#wm-grad); stroke-width: 14; stroke-linejoin: bevel; stroke-linecap: butt; }
  .octa-seam { fill: none; stroke: #4D18B8; stroke-width: 2; stroke-linecap: butt; opacity: .42; }

</style>

<defs>

  <clipPath id="robot-antenna-clip"><rect x="71.5" y="8.7" width="21.5" height="24.2"/></clipPath>
  <mask id="robot-knockout" maskUnits="userSpaceOnUse" x="0" y="0" width="200" height="200">
    <rect x="133.6" y="63.7" width="14.6" height="11.8" fill="#fff"/>
    <path fill="#fff" d="M94.7,11.2c0.2,0,5.3,0,10.5,0.5c17.2,2.1,30.7,15.6,32.8,32.8c0.5,5.2,0.5,10.3,0.5,10.5c0,0.2,0,5.3-0.5,10.5c-2.1,17.2-15.6,30.7-32.8,32.8c-5.2,0.5-10.3,0.5-10.5,0.5c-0.2,0-5.3,0-10.5-0.5c-17.2-2.1-30.7-15.6-32.8-32.8c-0.5-5.2-0.5-10.3-0.5-10.5c0-0.2,0-5.3,0.5-10.5c2.1-17.2,15.6-30.7,32.8-32.8C89.4,11.2,94.5,11.2,94.7,11.2z"/>
    <path fill="#000" d="M94.7,13.3c0.2,0,4.6,0,9.2,0.5c15.1,1.8,27,13.8,28.9,28.9c0.5,4.6,0.5,9.1,0.5,9.2s0,4.6-0.5,9.2c-1.8,15.1-13.8,27-28.9,28.9c-4.6,0.5-9.1,0.5-9.2,0.5c-0.2,0-4.6,0-9.2-0.5c-15.1-1.8-27-13.8-28.9-28.9c-0.5-4.6-0.5-9.1-0.5-9.2s0-4.6,0.5-9.2c1.8-15.1,13.8-27,28.9-28.9C90.1,13.3,94.6,13.3,94.7,13.3z"/>
    <rect x="43.7" y="1" width="102" height="66.2" fill="#000"/>
    <rect x="41.3" y="63.7" width="14.6" height="11.8" fill="#fff"/>
    <rect x="34.1" y="167.5" width="121.3" height="20.7" fill="#fff"/>
    <rect x="52.1" y="106.2" width="85.3" height="53.9" fill="#fff"/>
    <rect x="59.3" y="113.4" width="70.9" height="24" fill="#000"/>
    <rect x="59.3" y="144.6" width="70.9" height="8.3" fill="#000"/>
    <rect x="84" y="9.9" width="13.7" height="20.7" transform="matrix(0.9301 -0.3673 0.3673 0.9301 -1.0708 34.7719)" fill="#fff"/>
    <path clip-path="url(#robot-antenna-clip)" fill="none" stroke="#000" stroke-width="6" d="M73.9,12.4c3.4,1.8,6.5,4.4,9.3,7.5c2.9,3.3,5.3,7.2,5.8,11.7"/>
    <rect x="34.1" y="24.6" width="121.3" height="43.4" fill="#fff"/>
    <rect x="41.3" y="31.8" width="106.9" height="36.6" fill="#000"/>
  </mask>
  <g id="robot-master">
    <rect x="0" y="0" width="200" height="200" fill="currentColor" mask="url(#robot-knockout)"/>
    <circle cx="72.5" cy="52.5" r="12.9" fill="#34A853"/>
    <!-- Angular eye as two filled rectangles (matching the head's wall logic):
         a horizontal bar and a diagonal bar sharing a vertical left edge, so
         their intersection reads as a clean square corner, not a beveled cut. -->
    <g fill="#EB4336"><rect x="103.72" y="57.2" width="26.18" height="5.4"/><rect x="0" y="-5.4" width="27" height="5.4" transform="translate(103.72 62.6) rotate(-35.3)"/></g>
  </g>
  <g id="robot-premium">
    <!-- curved quiff "hair" (lighter take on the original logo's curl) -->
    <path class="r-node" d="M90 35L100 35L88 14L76 11Q82 25 90 35Z"/>
    <path class="r-panel" d="M52 36H148L159 47V93L148 104H52L41 93V47Z"/>
    <circle cx="78" cy="62" r="11" fill="#34A853"/>
    <path d="M134 55L116 63L134 71" fill="none" stroke="#EB4336" stroke-width="6.5" stroke-linecap="butt" stroke-linejoin="miter"/>
    <path class="r-line" d="M84 86Q100 97 116 86"/>
    <path class="r-panel" d="M70 124H130L141 135V167L130 178H70L59 167V135Z"/>
    <path class="r-line" d="M64 151H136"/>
    <rect class="r-node" x="54" y="186" width="92" height="9"/>
  </g>
  
  <g id="wordmark-master">
    <g id="wordmark-shapes" fill="currentColor">
        <path transform="translate(0.00 100) scale(0.06414 -0.06414)" d="M185 0V1544H509Q742 1544 877 1498Q1022 1453 1140 1345Q1379 1127 1379 772Q1379 416 1130 196Q1005 86 868 43Q740 0 505 0ZM418 219H523Q680 219 784 252Q888 287 972 363Q1144 520 1144 772Q1144 1026 974 1184Q821 1325 523 1325H418Z"/>
        <path transform="translate(99.23 100) scale(0.06414 -0.06414)" d="M1029 434H331Q340 314 409 243Q478 173 586 173Q670 173 725 213Q779 253 848 361L1038 255Q994 180 945.0 126.5Q896 73 840.0 38.5Q784 4 719.0 -12.0Q654 -28 578 -28Q360 -28 228 112Q96 253 96 486Q96 717 224 860Q353 1001 566 1001Q781 1001 906 864Q1030 728 1030 487ZM798 618Q751 798 571 798Q530 798 494.0 785.5Q458 773 428.5 749.5Q399 726 378.0 693.0Q357 660 346 618Z"/>
        <path transform="translate(175.75 100) scale(0.06414 -0.06414)" d="M1326 1461V1185Q1124 1354 908 1354Q670 1354 507 1183Q343 1013 343 767Q343 524 507.0 357.0Q671 190 909 190Q1032 190 1118 230Q1166 250 1217.5 284.0Q1269 318 1326 366V85Q1126 -28 906 -28Q575 -28 341 203Q108 436 108 765Q108 1060 303 1291Q543 1574 924 1574Q1132 1574 1326 1461Z"/>
        <path transform="translate(271.65 100) scale(0.06414 -0.06414)" d="M418 1544V219H872V0H185V1544Z"/>
        <path transform="translate(333.74 100) scale(0.06414 -0.06414)" d="M860 974H1086V0H860V102Q721 -28 561 -28Q359 -28 227 118Q96 267 96 490Q96 709 227.0 855.0Q358 1001 555 1001Q725 1001 860 861ZM326 490Q326 350 401 262Q478 173 595 173Q720 173 797 259Q874 348 874 485Q874 622 797 711Q720 798 597 798Q481 798 403 710Q326 621 326 490Z"/>
        <path fill="#EB4336" transform="translate(416.36 100) scale(0.06414 -0.06414)" d="M708 658 1186 0H901L460 632H418V0H185V1544H458Q764 1544 900 1429Q1050 1301 1050 1091Q1050 927 956.0 809.0Q862 691 708 658ZM418 835H492Q823 835 823 1088Q823 1325 501 1325H418Z"/>
        <path fill="#EB4336" transform="translate(499.29 100) scale(0.06414 -0.06414)" d="M1029 434H331Q340 314 409 243Q478 173 586 173Q670 173 725 213Q779 253 848 361L1038 255Q994 180 945.0 126.5Q896 73 840.0 38.5Q784 4 719.0 -12.0Q654 -28 578 -28Q360 -28 228 112Q96 253 96 486Q96 717 224 860Q353 1001 566 1001Q781 1001 906 864Q1030 728 1030 487ZM798 618Q751 798 571 798Q530 798 494.0 785.5Q458 773 428.5 749.5Q399 726 378.0 693.0Q357 660 346 618Z"/>
    </g>
  </g>
</defs>
<g id="robot" style="color:#FFFFFF" transform="translate(-6 14) scale(0.74)"><use xlink:href="#robot-master"/></g>
<g id="theme-text" class="theme" style="color:#FFFFFF">
  <text x="142" y="54">Deep</text>
  <text x="142" y="86">Cognition</text>
  <text x="142" y="118">and</text>
  <text x="142" y="150">Language</text>
  <text x="142" y="182">Research</text>
</g>
<g id="wordmark" style="color:#FFFFFF" transform="translate(59.9 250) scale(0.42)"><use xlink:href="#wordmark-master"/></g>
</svg>
