<?xml version="1.0" encoding="utf-8"?>
<svg xmlns="http://www.w3.org/2000/svg" xmlns:xlink="http://www.w3.org/1999/xlink"
  viewBox="0 0 360 360" xml:space="preserve" role="img" aria-labelledby="title desc"
  >
<title id="title">DeCLaRe square theme logo, light theme</title>
<desc id="desc">Robot mascot beside the full Deep Cognition and Language Research name, with the DeCLaRe wordmark below.</desc>
<style type="text/css">
  /* DeCLaRe identity: wordmark purple #7C3AED; green eye
     #34A853; red angular eye #EB4336. */
  /* Classic robot: one themeable silhouette (currentColor) with interior detail
     carved out via #robot-knockout. */
  /* Premium line-art robot: chamfered panels in wordmark purple, faint fill,
     green/red eyes kept as the accent. */
  .r-panel { fill: #7C3AED; fill-opacity: .10; stroke: #7C3AED; stroke-width: 6; stroke-linejoin: miter; stroke-linecap: butt; }
  .r-line { fill: none; stroke: #7C3AED; stroke-width: 6; stroke-linecap: butt; stroke-linejoin: miter; }
  .r-node { fill: #7C3AED; }
  .thread { fill: none; stroke: #A78BFA; stroke-width: 5; stroke-linecap: butt; }
  .theme { fill: currentColor; font-family: Futura, sans-serif; font-size: 25px; font-weight: 500; letter-spacing: .2px; }
  /* Octagon style: lightweight monoline letters, bevel-cut (octagonal) corners,
     vertical gradient, and subtle "fused-lego" seams. */
  .octa { fill: none; stroke: url(#wm-grad); stroke-width: 14; stroke-linejoin: bevel; stroke-linecap: butt; }
  .octa-seam { fill: none; stroke: #4D18B8; stroke-width: 2; stroke-linecap: butt; opacity: .42; }

</style>

<defs>

  <clipPath id="robot-antenna-clip"><rect x="71.5" y="8.7" width="21.5" height="24.2"/></clipPath>
  <mask id="robot-knockout" maskUnits="userSpaceOnUse" x="0" y="0" width="200" height="200">
    <rect x="133.6" y="63.7" width="14.6" height="11.8" fill="#fff"/>
    <path fill="#fff" d="M94.7,11.2c0.2,0,5.3,0,10.5,0.5c17.2,2.1,30.7,15.6,32.8,32.8c0.5,5.2,0.5,10.3,0.5,10.5c0,0.2,0,5.3-0.5,10.5c-2.1,17.2-15.6,30.7-32.8,32.8c-5.2,0.5-10.3,0.5-10.5,0.5c-0.2,0-5.3,0-10.5-0.5c-17.2-2.1-30.7-15.6-32.8-32.8c-0.5-5.2-0.5-10.3-0.5-10.5c0-0.2,0-5.3,0.5-10.5c2.1-17.2,15.6-30.7,32.8-32.8C89.4,11.2,94.5,11.2,94.7,11.2z"/>
    <path fill="#000" d="M94.7,13.3c0.2,0,4.6,0,9.2,0.5c15.1,1.8,27,13.8,28.9,28.9c0.5,4.6,0.5,9.1,0.5,9.2s0,4.6-0.5,9.2c-1.8,15.1-13.8,27-28.9,28.9c-4.6,0.5-9.1,0.5-9.2,0.5c-0.2,0-4.6,0-9.2-0.5c-15.1-1.8-27-13.8-28.9-28.9c-0.5-4.6-0.5-9.1-0.5-9.2s0-4.6,0.5-9.2c1.8-15.1,13.8-27,28.9-28.9C90.1,13.3,94.6,13.3,94.7,13.3z"/>
    <rect x="43.7" y="1" width="102" height="66.2" fill="#000"/>
    <rect x="41.3" y="63.7" width="14.6" height="11.8" fill="#fff"/>
    <rect x="34.1" y="167.5" width="121.3" height="20.7" fill="#fff"/>
    <rect x="52.1" y="106.2" width="85.3" height="53.9" fill="#fff"/>
    <rect x="60.4" y="112.4" width="68.5" height="25.9" fill="#000"/>
    <rect x="60.4" y="144.3" width="68.5" height="8.3" fill="#000"/>
    <rect x="84" y="9.9" width="13.7" height="20.7" transform="matrix(0.9301 -0.3673 0.3673 0.9301 -1.0708 34.7719)" fill="#fff"/>
    <path clip-path="url(#robot-antenna-clip)" fill="none" stroke="#000" stroke-width="6" d="M73.9,12.4c3.4,1.8,6.5,4.4,9.3,7.5c2.9,3.3,5.3,7.2,5.8,11.7"/>
    <rect x="34.1" y="24.6" width="121.3" height="43.4" fill="#fff"/>
    <rect x="41.2" y="33.5" width="107" height="34.9" fill="#000"/>
  </mask>
  <g id="robot-master">
    <rect x="0" y="0" width="200" height="200" fill="currentColor" mask="url(#robot-knockout)"/>
    <circle cx="72.5" cy="52.5" r="12.9" fill="#34A853"/>
    <rect x="103.9" y="57.2" width="26" height="5.4" fill="#EB4336"/>
    <polygon points="103.8,57.1 123.4,43.2 125.4,47.3 105.9,61.1" fill="#EB4336"/>
  </g>
  <g id="robot-premium">
    <!-- curved quiff "hair" (lighter take on the original logo's curl) -->
    <path class="r-node" d="M90 35L100 35L88 14L76 11Q82 25 90 35Z"/>
    <path class="r-panel" d="M52 36H148L159 47V93L148 104H52L41 93V47Z"/>
    <circle cx="78" cy="62" r="11" fill="#34A853"/>
    <path d="M134 55L116 63L134 71" fill="none" stroke="#EB4336" stroke-width="6.5" stroke-linecap="butt" stroke-linejoin="miter"/>
    <path class="r-line" d="M84 86Q100 97 116 86"/>
    <path class="r-panel" d="M70 124H130L141 135V167L130 178H70L59 167V135Z"/>
    <path class="r-line" d="M64 151H136"/>
    <rect class="r-node" x="54" y="186" width="92" height="9"/>
  </g>
  
  <g id="wordmark-master">
    <g id="wordmark-shapes" fill="currentColor">
        <path transform="translate(0.00 100) scale(0.06414 -0.06414)" d="M185 0V1544H509Q742 1544 877 1498Q1022 1453 1140 1345Q1379 1127 1379 772Q1379 416 1130 196Q1005 86 868 43Q740 0 505 0ZM418 219H523Q680 219 784 252Q888 287 972 363Q1144 520 1144 772Q1144 1026 974 1184Q821 1325 523 1325H418Z"/>
        <path transform="translate(99.23 100) scale(0.06414 -0.06414)" d="M1029 434H331Q340 314 409 243Q478 173 586 173Q670 173 725 213Q779 253 848 361L1038 255Q994 180 945.0 126.5Q896 73 840.0 38.5Q784 4 719.0 -12.0Q654 -28 578 -28Q360 -28 228 112Q96 253 96 486Q96 717 224 860Q353 1001 566 1001Q781 1001 906 864Q1030 728 1030 487ZM798 618Q751 798 571 798Q530 798 494.0 785.5Q458 773 428.5 749.5Q399 726 378.0 693.0Q357 660 346 618Z"/>
        <path transform="translate(175.75 100) scale(0.06414 -0.06414)" d="M1326 1461V1185Q1124 1354 908 1354Q670 1354 507 1183Q343 1013 343 767Q343 524 507.0 357.0Q671 190 909 190Q1032 190 1118 230Q1166 250 1217.5 284.0Q1269 318 1326 366V85Q1126 -28 906 -28Q575 -28 341 203Q108 436 108 765Q108 1060 303 1291Q543 1574 924 1574Q1132 1574 1326 1461Z"/>
        <path transform="translate(271.65 100) scale(0.06414 -0.06414)" d="M418 1544V219H872V0H185V1544Z"/>
        <path transform="translate(333.74 100) scale(0.06414 -0.06414)" d="M860 974H1086V0H860V102Q721 -28 561 -28Q359 -28 227 118Q96 267 96 490Q96 709 227.0 855.0Q358 1001 555 1001Q725 1001 860 861ZM326 490Q326 350 401 262Q478 173 595 173Q720 173 797 259Q874 348 874 485Q874 622 797 711Q720 798 597 798Q481 798 403 710Q326 621 326 490Z"/>
        <path transform="translate(416.36 100) scale(0.06414 -0.06414)" d="M708 658 1186 0H901L460 632H418V0H185V1544H458Q764 1544 900 1429Q1050 1301 1050 1091Q1050 927 956.0 809.0Q862 691 708 658ZM418 835H492Q823 835 823 1088Q823 1325 501 1325H418Z"/>
        <path fill="#EB4336" transform="translate(499.29 100) scale(0.06414 -0.06414)" d="M1029 434H331Q340 314 409 243Q478 173 586 173Q670 173 725 213Q779 253 848 361L1038 255Q994 180 945.0 126.5Q896 73 840.0 38.5Q784 4 719.0 -12.0Q654 -28 578 -28Q360 -28 228 112Q96 253 96 486Q96 717 224 860Q353 1001 566 1001Q781 1001 906 864Q1030 728 1030 487ZM798 618Q751 798 571 798Q530 798 494.0 785.5Q458 773 428.5 749.5Q399 726 378.0 693.0Q357 660 346 618Z"/>
    </g>
  </g>
</defs>
<g id="robot" style="color:#000000" transform="translate(-34.08 -2.96) scale(1.12)"><use xlink:href="#robot-master"/></g>
<g id="theme-text" fill="#000000">
  <g transform="translate(174 14) scale(1.000000)">
      <path transform="translate(0.000 27) scale(0.017319 -0.017319)" d="M185 0V1544H509Q742 1544 877 1498Q1022 1453 1140 1345Q1379 1127 1379 772Q1379 416 1130 196Q1005 86 868 43Q740 0 505 0ZM418 219H523Q680 219 784 252Q888 287 972 363Q1144 520 1144 772Q1144 1026 974 1184Q821 1325 523 1325H418Z"/>
      <path transform="translate(25.753 27) scale(0.017319 -0.017319)" d="M1029 434H331Q340 314 409 243Q478 173 586 173Q670 173 725 213Q779 253 848 361L1038 255Q994 180 945.0 126.5Q896 73 840.0 38.5Q784 4 719.0 -12.0Q654 -28 578 -28Q360 -28 228 112Q96 253 96 486Q96 717 224 860Q353 1001 566 1001Q781 1001 906 864Q1030 728 1030 487ZM798 618Q751 798 571 798Q530 798 494.0 785.5Q458 773 428.5 749.5Q399 726 378.0 693.0Q357 660 346 618Z"/>
      <path transform="translate(45.375 27) scale(0.017319 -0.017319)" d="M1029 434H331Q340 314 409 243Q478 173 586 173Q670 173 725 213Q779 253 848 361L1038 255Q994 180 945.0 126.5Q896 73 840.0 38.5Q784 4 719.0 -12.0Q654 -28 578 -28Q360 -28 228 112Q96 253 96 486Q96 717 224 860Q353 1001 566 1001Q781 1001 906 864Q1030 728 1030 487ZM798 618Q751 798 571 798Q530 798 494.0 785.5Q458 773 428.5 749.5Q399 726 378.0 693.0Q357 660 346 618Z"/>
      <path transform="translate(64.997 27) scale(0.017319 -0.017319)" d="M367 -530H142V974H367V868Q500 1001 669 1001Q870 1001 1000 853Q1132 706 1132 482Q1132 263 1001 117Q871 -28 673 -28Q502 -28 367 109ZM902 481Q902 621 826 709Q749 798 632 798Q508 798 431.0 712.0Q354 626 354 486Q354 349 431 260Q507 173 631 173Q748 173 824 261Q902 349 902 481Z"/>
    </g>
  <g transform="translate(174 54) scale(1.000000)">
      <path transform="translate(0.000 27) scale(0.017319 -0.017319)" d="M1326 1461V1185Q1124 1354 908 1354Q670 1354 507 1183Q343 1013 343 767Q343 524 507.0 357.0Q671 190 909 190Q1032 190 1118 230Q1166 250 1217.5 284.0Q1269 318 1326 366V85Q1126 -28 906 -28Q575 -28 341 203Q108 436 108 765Q108 1060 303 1291Q543 1574 924 1574Q1132 1574 1326 1461Z"/>
      <path transform="translate(24.852 27) scale(0.017319 -0.017319)" d="M96 494Q96 705 247.0 853.0Q398 1001 615 1001Q833 1001 985 852Q1135 703 1135 486Q1135 267 984 119Q832 -28 611 -28Q392 -28 244 122Q96 270 96 494ZM326 490Q326 344 404 259Q484 173 615 173Q747 173 826.0 258.0Q905 343 905 485Q905 627 826 712Q746 798 615 798Q486 798 406.0 712.0Q326 626 326 490Z"/>
      <path transform="translate(46.172 27) scale(0.017319 -0.017319)" d="M1084 23Q1084 -46 1079.5 -98.5Q1075 -151 1067 -191Q1043 -301 973 -380Q841 -532 610 -532Q415 -532 289 -427Q159 -319 139 -128H365Q378 -200 408 -239Q478 -330 612 -330Q859 -330 859 -27V109Q725 -28 550 -28Q351 -28 224 116Q96 262 96 481Q96 694 215 843Q343 1001 553 1001Q737 1001 859 864V974H1084ZM868 485Q868 627 792 712Q715 799 595 799Q467 799 393 704Q326 619 326 484Q326 351 393 266Q466 173 595 173Q724 173 799 267Q868 352 868 485Z"/>
      <path transform="translate(67.405 27) scale(0.017319 -0.017319)" d="M142 974H368V884Q486 1001 634 1001Q804 1001 899 894Q981 803 981 597V0H755V544Q755 688 715 743Q676 799 573 799Q461 799 414 725Q368 652 368 470V0H142Z"/>
      <path transform="translate(86.854 27) scale(0.017319 -0.017319)" d="M367 974V0H142V974ZM108 1379Q108 1438 151.0 1481.0Q194 1524 254 1524Q315 1524 358 1481Q401 1439 401 1378Q401 1317 358 1274Q316 1231 255 1231Q194 1231 151.0 1274.0Q108 1317 108 1379Z"/>
      <path transform="translate(95.686 27) scale(0.017319 -0.017319)" d="M374 764V0H149V764H53V974H149V1331H374V974H549V764Z"/>
      <path transform="translate(105.385 27) scale(0.017319 -0.017319)" d="M367 974V0H142V974ZM108 1379Q108 1438 151.0 1481.0Q194 1524 254 1524Q315 1524 358 1481Q401 1439 401 1378Q401 1317 358 1274Q316 1231 255 1231Q194 1231 151.0 1274.0Q108 1317 108 1379Z"/>
      <path transform="translate(114.217 27) scale(0.017319 -0.017319)" d="M96 494Q96 705 247.0 853.0Q398 1001 615 1001Q833 1001 985 852Q1135 703 1135 486Q1135 267 984 119Q832 -28 611 -28Q392 -28 244 122Q96 270 96 494ZM326 490Q326 344 404 259Q484 173 615 173Q747 173 826.0 258.0Q905 343 905 485Q905 627 826 712Q746 798 615 798Q486 798 406.0 712.0Q326 626 326 490Z"/>
      <path transform="translate(135.537 27) scale(0.017319 -0.017319)" d="M142 974H368V884Q486 1001 634 1001Q804 1001 899 894Q981 803 981 597V0H755V544Q755 688 715 743Q676 799 573 799Q461 799 414 725Q368 652 368 470V0H142Z"/>
    </g>
  <g transform="translate(174 94) scale(1.000000)">
      <path transform="translate(0.000 27) scale(0.017319 -0.017319)" d="M860 974H1086V0H860V102Q721 -28 561 -28Q359 -28 227 118Q96 267 96 490Q96 709 227.0 855.0Q358 1001 555 1001Q725 1001 860 861ZM326 490Q326 350 401 262Q478 173 595 173Q720 173 797 259Q874 348 874 485Q874 622 797 711Q720 798 597 798Q481 798 403 710Q326 621 326 490Z"/>
      <path transform="translate(21.267 27) scale(0.017319 -0.017319)" d="M142 974H368V884Q486 1001 634 1001Q804 1001 899 894Q981 803 981 597V0H755V544Q755 688 715 743Q676 799 573 799Q461 799 414 725Q368 652 368 470V0H142Z"/>
      <path transform="translate(40.716 27) scale(0.017319 -0.017319)" d="M860 1689H1086V0H860V102Q727 -28 559 -28Q359 -28 227 118Q96 267 96 490Q96 708 227 854Q357 1001 554 1001Q725 1001 860 861ZM326 490Q326 350 401 262Q478 173 595 173Q720 173 797 259Q874 348 874 485Q874 622 797 711Q720 798 597 798Q481 798 403 710Q326 621 326 490Z"/>
    </g>
  <g transform="translate(174 134) scale(1.000000)">
      <path transform="translate(0.000 27) scale(0.017319 -0.017319)" d="M418 1544V219H872V0H185V1544Z"/>
      <path transform="translate(15.725 27) scale(0.017319 -0.017319)" d="M860 974H1086V0H860V102Q721 -28 561 -28Q359 -28 227 118Q96 267 96 490Q96 709 227.0 855.0Q358 1001 555 1001Q725 1001 860 861ZM326 490Q326 350 401 262Q478 173 595 173Q720 173 797 259Q874 348 874 485Q874 622 797 711Q720 798 597 798Q481 798 403 710Q326 621 326 490Z"/>
      <path transform="translate(36.993 27) scale(0.017319 -0.017319)" d="M142 974H368V884Q486 1001 634 1001Q804 1001 899 894Q981 803 981 597V0H755V544Q755 688 715 743Q676 799 573 799Q461 799 414 725Q368 652 368 470V0H142Z"/>
      <path transform="translate(56.442 27) scale(0.017319 -0.017319)" d="M1084 23Q1084 -46 1079.5 -98.5Q1075 -151 1067 -191Q1043 -301 973 -380Q841 -532 610 -532Q415 -532 289 -427Q159 -319 139 -128H365Q378 -200 408 -239Q478 -330 612 -330Q859 -330 859 -27V109Q725 -28 550 -28Q351 -28 224 116Q96 262 96 481Q96 694 215 843Q343 1001 553 1001Q737 1001 859 864V974H1084ZM868 485Q868 627 792 712Q715 799 595 799Q467 799 393 704Q326 619 326 484Q326 351 393 266Q466 173 595 173Q724 173 799 267Q868 352 868 485Z"/>
      <path transform="translate(77.675 27) scale(0.017319 -0.017319)" d="M367 974V415Q367 173 558 173Q749 173 749 415V974H974V410Q974 293 945 208Q917 132 848 71Q734 -28 558 -28Q383 -28 269 71Q199 132 170 208Q142 276 142 410V974Z"/>
      <path transform="translate(97.003 27) scale(0.017319 -0.017319)" d="M860 974H1086V0H860V102Q721 -28 561 -28Q359 -28 227 118Q96 267 96 490Q96 709 227.0 855.0Q358 1001 555 1001Q725 1001 860 861ZM326 490Q326 350 401 262Q478 173 595 173Q720 173 797 259Q874 348 874 485Q874 622 797 711Q720 798 597 798Q481 798 403 710Q326 621 326 490Z"/>
      <path transform="translate(118.270 27) scale(0.017319 -0.017319)" d="M1084 23Q1084 -46 1079.5 -98.5Q1075 -151 1067 -191Q1043 -301 973 -380Q841 -532 610 -532Q415 -532 289 -427Q159 -319 139 -128H365Q378 -200 408 -239Q478 -330 612 -330Q859 -330 859 -27V109Q725 -28 550 -28Q351 -28 224 116Q96 262 96 481Q96 694 215 843Q343 1001 553 1001Q737 1001 859 864V974H1084ZM868 485Q868 627 792 712Q715 799 595 799Q467 799 393 704Q326 619 326 484Q326 351 393 266Q466 173 595 173Q724 173 799 267Q868 352 868 485Z"/>
      <path transform="translate(139.503 27) scale(0.017319 -0.017319)" d="M1029 434H331Q340 314 409 243Q478 173 586 173Q670 173 725 213Q779 253 848 361L1038 255Q994 180 945.0 126.5Q896 73 840.0 38.5Q784 4 719.0 -12.0Q654 -28 578 -28Q360 -28 228 112Q96 253 96 486Q96 717 224 860Q353 1001 566 1001Q781 1001 906 864Q1030 728 1030 487ZM798 618Q751 798 571 798Q530 798 494.0 785.5Q458 773 428.5 749.5Q399 726 378.0 693.0Q357 660 346 618Z"/>
    </g>
  <g transform="translate(174 174) scale(1.000000)">
      <path transform="translate(0.000 27) scale(0.017319 -0.017319)" d="M708 658 1186 0H901L460 632H418V0H185V1544H458Q764 1544 900 1429Q1050 1301 1050 1091Q1050 927 956.0 809.0Q862 691 708 658ZM418 835H492Q823 835 823 1088Q823 1325 501 1325H418Z"/>
      <path transform="translate(21.354 27) scale(0.017319 -0.017319)" d="M1029 434H331Q340 314 409 243Q478 173 586 173Q670 173 725 213Q779 253 848 361L1038 255Q994 180 945.0 126.5Q896 73 840.0 38.5Q784 4 719.0 -12.0Q654 -28 578 -28Q360 -28 228 112Q96 253 96 486Q96 717 224 860Q353 1001 566 1001Q781 1001 906 864Q1030 728 1030 487ZM798 618Q751 798 571 798Q530 798 494.0 785.5Q458 773 428.5 749.5Q399 726 378.0 693.0Q357 660 346 618Z"/>
      <path transform="translate(40.976 27) scale(0.017319 -0.017319)" d="M708 808 522 709Q478 799 413 799Q382 799 360.0 778.5Q338 758 338 726Q338 670 468 615Q647 538 709.0 473.0Q771 408 771 298Q771 157 667 62Q566 -28 423 -28Q178 -28 76 211L268 300Q308 230 329 211Q370 173 427 173Q541 173 541 277Q541 337 453 389Q419 406 385.0 422.0Q351 438 316 455Q218 503 178 551Q127 612 127 708Q127 835 214 918Q303 1001 430 1001Q617 1001 708 808Z"/>
      <path transform="translate(55.368 27) scale(0.017319 -0.017319)" d="M1029 434H331Q340 314 409 243Q478 173 586 173Q670 173 725 213Q779 253 848 361L1038 255Q994 180 945.0 126.5Q896 73 840.0 38.5Q784 4 719.0 -12.0Q654 -28 578 -28Q360 -28 228 112Q96 253 96 486Q96 717 224 860Q353 1001 566 1001Q781 1001 906 864Q1030 728 1030 487ZM798 618Q751 798 571 798Q530 798 494.0 785.5Q458 773 428.5 749.5Q399 726 378.0 693.0Q357 660 346 618Z"/>
      <path transform="translate(74.990 27) scale(0.017319 -0.017319)" d="M860 974H1086V0H860V102Q721 -28 561 -28Q359 -28 227 118Q96 267 96 490Q96 709 227.0 855.0Q358 1001 555 1001Q725 1001 860 861ZM326 490Q326 350 401 262Q478 173 595 173Q720 173 797 259Q874 348 874 485Q874 622 797 711Q720 798 597 798Q481 798 403 710Q326 621 326 490Z"/>
      <path transform="translate(96.258 27) scale(0.017319 -0.017319)" d="M142 974H367V887Q429 952 477 976Q526 1001 593 1001Q682 1001 779 943L676 737Q612 783 551 783Q367 783 367 505V0H142Z"/>
      <path transform="translate(109.524 27) scale(0.017319 -0.017319)" d="M900 932V633Q823 727 762 762Q702 798 621 798Q494 798 410.0 709.0Q326 620 326 486Q326 349 407 261Q489 173 616 173Q697 173 759 208Q819 242 900 340V43Q763 -28 626 -28Q400 -28 248 118Q96 265 96 483Q96 701 250.0 851.0Q404 1001 628 1001Q772 1001 900 932Z"/>
      <path transform="translate(126.427 27) scale(0.017319 -0.017319)" d="M142 1689H367V893Q487 1001 632 1001Q797 1001 896 894Q980 801 980 597V0H755V576Q755 693 713.5 745.5Q672 798 580 798Q462 798 414 725Q367 651 367 471V0H142Z"/>
    </g>
</g>
<g id="wordmark" style="color:#000000" transform="translate(0.632 254) scale(0.620937)"><use xlink:href="#wordmark-master"/></g>
</svg>
